<svg xmlns="http://www.w3.org/2000/svg" viewBox="0 0 100 100" fill="none" stroke="#f3efe6" stroke-width="5" stroke-linecap="round" stroke-linejoin="round">
  <path d="M50 66 C 56 56, 60 49, 66 41 C 70 36, 73 30, 75 23"/>
  <path d="M63 45 C 67 44, 71 44, 77 46"/>
  <path d="M68 37 C 72 35, 76 34, 82 35"/>
  <path d="M73 29 C 76 27, 80 26, 84 27"/>
  <path d="M50 66 C 44 56, 40 49, 34 41 C 30 36, 27 30, 25 23"/>
  <path d="M37 45 C 33 44, 29 44, 23 46"/>
  <path d="M32 37 C 28 35, 24 34, 18 35"/>
  <path d="M27 29 C 24 27, 20 26, 16 27"/>
  <path d="M50 66 L 50 80"/>
  <circle cx="50" cy="86" r="6" fill="#f3efe6" stroke="none"/>
</svg>
