<svg xmlns="http://www.w3.org/2000/svg" viewBox="0 0 460 400" fill="none" stroke="#D97706" stroke-width="2" stroke-linecap="round" stroke-linejoin="round"><path d="M265.0 21.0L273.0 21.0"></path><path d="M274.0 21.0L279.0 21.0"></path><path d="M281.0 21.0L286.0 22.0"></path><path d="M256.0 23.0L261.0 23.0"></path><path d="M287.0 23.0L294.0 24.0"></path><path d="M262.0 24.0L264.0 27.0"></path><path d="M251.0 25.0C246.7 24.8 230.8 23.8 225.0 24.0C219.2 24.2 217.5 25.7 216.0 26.0"></path><path d="M276.0 25.0L279.0 25.0"></path><path d="M281.0 25.0L284.0 26.0"></path><path d="M215.0 26.0L212.0 27.0"></path><path d="M252.0 26.0L255.0 31.0"></path><path d="M208.0 27.0L211.0 27.0"></path><path d="M216.0 27.0L216.0 33.0"></path><path d="M212.0 28.0L212.0 33.0"></path><path d="M264.0 28.0L264.0 31.0"></path><path d="M287.0 28.0L294.0 30.0"></path><path d="M196.0 29.0L202.0 30.0"></path><path d="M194.0 30.0L190.0 31.0"></path><path d="M294.0 30.0L303.0 33.0"></path><path d="M268.0 31.0L265.0 32.0"></path><path d="M205.0 32.0L211.0 34.0"></path><path d="M200.0 33.0L196.0 34.0"></path><path d="M264.0 33.0L270.0 39.0"></path><path d="M274.0 33.0L281.0 33.0"></path><path d="M292.0 33.0L289.0 35.0"></path><path d="M273.0 34.0L273.0 39.0"></path><path d="M293.0 34.0L293.0 39.0"></path><path d="M306.0 35.0L311.0 36.0"></path><path d="M194.0 36.0L190.0 37.0"></path><path d="M314.0 39.0L325.0 41.0"></path><path d="M284.0 40.0L286.0 46.0"></path><path d="M186.0 41.0C184.5 41.5 179.2 42.8 177.0 44.0C174.8 45.2 173.7 47.3 173.0 48.0"></path><path d="M282.0 41.0L279.0 42.0"></path><path d="M292.0 41.0L291.0 44.0"></path><path d="M327.0 42.0L332.0 43.0"></path><path d="M362.0 42.0L357.0 43.0"></path><path d="M334.0 44.0C335.7 44.3 341.8 45.8 344.0 46.0C346.2 46.2 346.5 45.2 347.0 45.0"></path><path d="M351.0 44.0L356.0 44.0"></path><path d="M367.0 44.0L374.0 44.0"></path><path d="M333.0 45.0L333.0 48.0"></path><path d="M357.0 45.0L358.0 49.0"></path><path d="M367.0 47.0L375.0 47.0"></path><path d="M277.0 48.0L286.0 48.0"></path><path d="M276.0 49.0C275.7 51.2 274.2 58.7 274.0 62.0C273.8 65.3 274.8 67.8 275.0 69.0"></path><path d="M287.0 49.0L286.0 68.0"></path><path d="M312.0 49.0L312.0 52.0"></path><path d="M334.0 49.0C334.7 49.5 336.7 51.5 338.0 52.0C339.3 52.5 341.3 52.0 342.0 52.0"></path><path d="M171.0 50.0C170.2 50.0 167.5 49.3 166.0 50.0C164.5 50.7 162.7 53.3 162.0 54.0"></path><path d="M363.0 50.0L367.0 50.0"></path><path d="M236.0 51.0L240.0 56.0"></path><path d="M361.0 53.0L364.0 55.0"></path><path d="M352.0 54.0L344.0 55.0"></path><path d="M161.0 55.0L158.0 56.0"></path><path d="M162.0 55.0L165.0 56.0"></path><path d="M369.0 57.0L372.0 57.0"></path><path d="M374.0 57.0L378.0 58.0"></path><path d="M155.0 58.0L152.0 59.0"></path><path d="M323.0 58.0L321.0 60.0"></path><path d="M344.0 58.0L350.0 58.0"></path><path d="M373.0 58.0L374.0 62.0"></path><path d="M380.0 58.0L390.0 58.0"></path><path d="M193.0 59.0C191.8 58.8 189.5 57.3 186.0 58.0C182.5 58.7 174.3 62.2 172.0 63.0"></path><path d="M242.0 59.0L245.0 69.0"></path><path d="M308.0 59.0L311.0 60.0"></path><path d="M352.0 59.0L359.0 62.0"></path><path d="M363.0 60.0L366.0 60.0"></path><path d="M313.0 61.0L318.0 62.0"></path><path d="M380.0 61.0L391.0 61.0"></path><path d="M312.0 62.0C311.7 62.7 311.0 65.2 310.0 66.0C309.0 66.8 306.5 66.2 306.0 67.0C305.5 67.8 306.8 70.3 307.0 71.0"></path><path d="M148.0 63.0L145.0 66.0"></path><path d="M199.0 63.0C200.8 63.0 207.0 62.3 210.0 63.0C213.0 63.7 215.8 66.3 217.0 67.0"></path><path d="M355.0 64.0L359.0 64.0"></path><path d="M374.0 64.0L366.0 66.0"></path><path d="M379.0 64.0L382.0 64.0"></path><path d="M384.0 64.0L389.0 64.0"></path><path d="M377.0 65.0L376.0 72.0"></path><path d="M145.0 66.0L138.0 67.0"></path><path d="M145.0 66.0C145.3 66.3 145.2 67.8 147.0 68.0C148.8 68.2 154.5 67.2 156.0 67.0"></path><path d="M195.0 66.0L187.0 67.0"></path><path d="M196.0 67.0L197.0 71.0"></path><path d="M385.0 67.0L388.0 67.0"></path><path d="M133.0 69.0L125.0 72.0"></path><path d="M285.0 69.0L277.0 70.0"></path><path d="M223.0 70.0C223.5 70.5 225.7 70.8 226.0 73.0C226.3 75.2 224.8 79.2 225.0 83.0C225.2 86.8 226.7 93.8 227.0 96.0"></path><path d="M246.0 70.0C246.7 70.3 249.2 70.8 250.0 72.0C250.8 73.2 250.8 76.2 251.0 77.0"></path><path d="M287.0 70.0L289.0 80.0"></path><path d="M386.0 71.0L390.0 72.0"></path><path d="M276.0 72.0C276.3 72.3 277.5 72.5 278.0 74.0C278.5 75.5 278.8 79.8 279.0 81.0"></path><path d="M363.0 72.0L369.0 73.0"></path><path d="M371.0 72.0L375.0 73.0"></path><path d="M242.0 73.0L242.0 78.0"></path><path d="M392.0 73.0L395.0 75.0"></path><path d="M273.0 75.0C272.7 75.3 271.2 76.0 271.0 77.0C270.8 78.0 271.8 80.3 272.0 81.0"></path><path d="M335.0 75.0C335.8 75.0 338.8 74.7 340.0 75.0C341.2 75.3 341.7 76.7 342.0 77.0"></path><path d="M390.0 75.0L391.0 78.0"></path><path d="M123.0 76.0L135.0 77.0"></path><path d="M381.0 76.0L387.0 77.0"></path><path d="M397.0 76.0L401.0 76.0"></path><path d="M373.0 77.0L379.0 77.0"></path><path d="M404.0 77.0L411.0 81.0"></path><path d="M250.0 78.0L244.0 79.0"></path><path d="M343.0 78.0L351.0 82.0"></path><path d="M368.0 78.0L371.0 78.0"></path><path d="M243.0 80.0L244.0 83.0"></path><path d="M382.0 80.0L386.0 80.0"></path><path d="M250.0 81.0L249.0 85.0"></path><path d="M255.0 81.0L256.0 88.0"></path><path d="M290.0 81.0L292.0 90.0"></path><path d="M368.0 81.0L380.0 81.0"></path><path d="M273.0 82.0L278.0 82.0"></path><path d="M280.0 82.0L283.0 84.0"></path><path d="M352.0 82.0L355.0 83.0"></path><path d="M381.0 82.0L386.0 83.0"></path><path d="M406.0 82.0L409.0 83.0"></path><path d="M102.0 83.0C103.0 82.8 106.7 81.8 108.0 82.0C109.3 82.2 109.7 83.7 110.0 84.0"></path><path d="M113.0 83.0L118.0 85.0"></path><path d="M351.0 83.0L354.0 88.0"></path><path d="M370.0 84.0C370.7 84.0 371.7 83.2 374.0 84.0C376.3 84.8 382.3 88.2 384.0 89.0"></path><path d="M391.0 84.0C392.0 84.8 396.0 87.5 397.0 89.0C398.0 90.5 397.0 92.3 397.0 93.0"></path><path d="M402.0 84.0L407.0 84.0"></path><path d="M411.0 84.0L414.0 84.0"></path><path d="M193.0 85.0L198.0 89.0"></path><path d="M283.0 85.0L283.0 93.0"></path><path d="M410.0 86.0L413.0 88.0"></path><path d="M250.0 89.0L255.0 89.0"></path><path d="M323.0 89.0L327.0 91.0"></path><path d="M361.0 89.0L364.0 94.0"></path><path d="M368.0 89.0L375.0 91.0"></path><path d="M244.0 90.0L244.0 96.0"></path><path d="M249.0 90.0L249.0 95.0"></path><path d="M315.0 90.0L317.0 97.0"></path><path d="M341.0 90.0L348.0 90.0"></path><path d="M355.0 90.0L358.0 93.0"></path><path d="M385.0 90.0C385.3 90.3 386.0 91.7 387.0 92.0C388.0 92.3 390.3 92.0 391.0 92.0"></path><path d="M165.0 91.0L161.0 97.0"></path><path d="M203.0 91.0L205.0 93.0"></path><path d="M293.0 91.0L298.0 97.0"></path><path d="M328.0 91.0C328.5 91.2 330.3 91.3 331.0 92.0C331.7 92.7 331.8 94.5 332.0 95.0"></path><path d="M106.0 92.0L104.0 95.0"></path><path d="M415.0 92.0L418.0 93.0"></path><path d="M177.0 93.0L171.0 95.0"></path><path d="M257.0 93.0C257.3 93.5 258.7 94.7 259.0 96.0C259.3 97.3 259.0 100.2 259.0 101.0"></path><path d="M385.0 94.0L389.0 95.0"></path><path d="M419.0 94.0L423.0 99.0"></path><path d="M130.0 95.0L121.0 102.0"></path><path d="M284.0 95.0L284.0 103.0"></path><path d="M333.0 96.0C333.3 95.8 333.5 94.8 335.0 95.0C336.5 95.2 340.8 96.7 342.0 97.0"></path><path d="M378.0 96.0L383.0 96.0"></path><path d="M355.0 97.0L358.0 100.0"></path><path d="M361.0 97.0C361.3 97.3 362.7 97.8 363.0 99.0C363.3 100.2 363.0 103.2 363.0 104.0"></path><path d="M385.0 97.0L388.0 97.0"></path><path d="M192.0 98.0L196.0 99.0"></path><path d="M226.0 98.0C226.3 98.5 227.7 99.0 228.0 101.0C228.3 103.0 228.0 108.5 228.0 110.0"></path><path d="M299.0 98.0L297.0 104.0"></path><path d="M325.0 98.0L329.0 105.0"></path><path d="M333.0 98.0L337.0 100.0"></path><path d="M344.0 98.0L348.0 102.0"></path><path d="M390.0 98.0L393.0 98.0"></path><path d="M394.0 98.0L398.0 101.0"></path><path d="M99.0 99.0L97.0 103.0"></path><path d="M205.0 99.0L205.0 105.0"></path><path d="M251.0 99.0L255.0 103.0"></path><path d="M332.0 99.0L331.0 102.0"></path><path d="M115.0 100.0L111.0 102.0"></path><path d="M158.0 100.0L155.0 105.0"></path><path d="M249.0 100.0C248.8 100.7 247.8 103.0 248.0 104.0C248.2 105.0 249.7 105.7 250.0 106.0"></path><path d="M406.0 100.0L409.0 101.0"></path><path d="M163.0 102.0L161.0 107.0"></path><path d="M190.0 102.0L181.0 106.0"></path><path d="M258.0 102.0L255.0 103.0"></path><path d="M378.0 102.0L383.0 104.0"></path><path d="M332.0 103.0L335.0 104.0"></path><path d="M431.0 103.0C431.3 104.0 433.3 108.0 433.0 109.0C432.7 110.0 429.7 109.0 429.0 109.0"></path><path d="M261.0 104.0L261.0 109.0"></path><path d="M285.0 104.0L291.0 105.0"></path><path d="M97.0 105.0C97.3 105.3 98.8 106.5 99.0 107.0C99.2 107.5 98.2 107.8 98.0 108.0"></path><path d="M118.0 105.0L112.0 111.0"></path><path d="M284.0 105.0C284.5 106.0 285.8 110.0 287.0 111.0C288.2 112.0 290.3 111.0 291.0 111.0"></path><path d="M296.0 105.0L293.0 106.0"></path><path d="M298.0 106.0L298.0 109.0"></path><path d="M201.0 107.0L200.0 110.0"></path><path d="M249.0 107.0L246.0 109.0"></path><path d="M292.0 107.0L292.0 110.0"></path><path d="M407.0 107.0C407.8 107.7 410.7 110.3 412.0 111.0C413.3 111.7 414.0 110.2 415.0 111.0C416.0 111.8 417.5 115.2 418.0 116.0"></path><path d="M160.0 109.0L159.0 115.0"></path><path d="M177.0 109.0C176.2 109.8 173.3 111.7 172.0 114.0C170.7 116.3 169.5 121.5 169.0 123.0"></path><path d="M321.0 109.0L319.0 113.0"></path><path d="M330.0 109.0L333.0 109.0"></path><path d="M396.0 109.0L400.0 110.0"></path><path d="M256.0 110.0L260.0 110.0"></path><path d="M229.0 111.0L232.0 113.0"></path><path d="M395.0 111.0L399.0 117.0"></path><path d="M94.0 112.0L92.0 115.0"></path><path d="M111.0 112.0L103.0 113.0"></path><path d="M153.0 112.0L152.0 119.0"></path><path d="M228.0 112.0L229.0 119.0"></path><path d="M245.0 112.0L240.0 113.0"></path><path d="M112.0 113.0L114.0 117.0"></path><path d="M264.0 113.0L269.0 113.0"></path><path d="M298.0 113.0L303.0 119.0"></path><path d="M197.0 114.0C198.0 114.3 201.5 114.8 203.0 116.0C204.5 117.2 205.5 120.2 206.0 121.0"></path><path d="M239.0 114.0L242.0 119.0"></path><path d="M263.0 114.0C263.5 114.5 265.0 116.5 266.0 117.0C267.0 117.5 268.5 117.0 269.0 117.0"></path><path d="M340.0 114.0C339.5 114.3 338.3 115.8 337.0 116.0C335.7 116.2 332.8 115.2 332.0 115.0"></path><path d="M350.0 114.0L350.0 117.0"></path><path d="M368.0 114.0L369.0 119.0"></path><path d="M191.0 115.0L184.0 116.0"></path><path d="M248.0 115.0L249.0 121.0"></path><path d="M70.0 116.0L76.0 117.0"></path><path d="M194.0 116.0L202.0 123.0"></path><path d="M94.0 117.0L97.0 117.0"></path><path d="M114.0 117.0L112.0 120.0"></path><path d="M77.0 118.0L76.0 122.0"></path><path d="M98.0 118.0L98.0 121.0"></path><path d="M161.0 118.0L160.0 122.0"></path><path d="M356.0 118.0L360.0 118.0"></path><path d="M355.0 119.0L355.0 123.0"></path><path d="M401.0 119.0L402.0 123.0"></path><path d="M420.0 119.0L423.0 125.0"></path><path d="M230.0 120.0C230.2 120.3 231.5 120.7 231.0 122.0C230.5 123.3 227.7 127.0 227.0 128.0"></path><path d="M254.0 120.0L250.0 121.0"></path><path d="M304.0 120.0L310.0 123.0"></path><path d="M108.0 121.0C107.5 120.8 106.5 119.8 105.0 120.0C103.5 120.2 100.0 121.7 99.0 122.0"></path><path d="M184.0 121.0C184.7 121.5 186.8 123.5 188.0 124.0C189.2 124.5 190.3 124.5 191.0 124.0C191.7 123.5 191.8 121.5 192.0 121.0"></path><path d="M209.0 121.0L214.0 125.0"></path><path d="M343.0 121.0L330.0 122.0"></path><path d="M417.0 121.0L418.0 124.0"></path><path d="M109.0 122.0L109.0 125.0"></path><path d="M403.0 124.0L411.0 129.0"></path><path d="M202.0 125.0C201.3 125.8 200.8 129.0 198.0 130.0C195.2 131.0 187.2 130.8 185.0 131.0"></path><path d="M356.0 125.0L355.0 135.0"></path><path d="M402.0 125.0L402.0 128.0"></path><path d="M73.0 126.0L70.0 132.0"></path><path d="M101.0 126.0L105.0 126.0"></path><path d="M165.0 126.0C165.0 126.7 166.2 126.8 165.0 130.0C163.8 133.2 158.8 142.0 158.0 145.0C157.2 148.0 159.2 147.5 160.0 148.0C160.8 148.5 162.5 148.0 163.0 148.0"></path><path d="M178.0 126.0L179.0 129.0"></path><path d="M312.0 126.0L317.0 132.0"></path><path d="M328.0 126.0L331.0 130.0"></path><path d="M352.0 128.0L352.0 136.0"></path><path d="M398.0 129.0L400.0 132.0"></path><path d="M77.0 130.0L74.0 132.0"></path><path d="M234.0 130.0L240.0 130.0"></path><path d="M174.0 131.0L177.0 132.0"></path><path d="M240.0 131.0L238.0 136.0"></path><path d="M104.0 132.0L109.0 132.0"></path><path d="M218.0 132.0L215.0 133.0"></path><path d="M332.0 132.0L332.0 138.0"></path><path d="M318.0 133.0L321.0 137.0"></path><path d="M329.0 133.0L329.0 139.0"></path><path d="M102.0 134.0L105.0 137.0"></path><path d="M179.0 134.0L176.0 135.0"></path><path d="M214.0 134.0L211.0 138.0"></path><path d="M223.0 134.0L220.0 140.0"></path><path d="M98.0 135.0L98.0 138.0"></path><path d="M77.0 136.0L72.0 137.0"></path><path d="M58.0 137.0C58.7 136.5 60.7 134.0 62.0 134.0C63.3 134.0 65.3 136.5 66.0 137.0"></path><path d="M84.0 138.0L87.0 139.0"></path><path d="M276.0 138.0L285.0 138.0"></path><path d="M287.0 138.0L292.0 138.0"></path><path d="M323.0 138.0L327.0 140.0"></path><path d="M403.0 138.0L405.0 143.0"></path><path d="M99.0 139.0L104.0 142.0"></path><path d="M286.0 139.0L286.0 144.0"></path><path d="M294.0 139.0L298.0 139.0"></path><path d="M300.0 139.0C300.5 138.8 301.2 137.8 303.0 138.0C304.8 138.2 309.7 139.7 311.0 140.0"></path><path d="M86.0 140.0L83.0 141.0"></path><path d="M293.0 140.0L293.0 144.0"></path><path d="M299.0 140.0L299.0 144.0"></path><path d="M49.0 141.0L46.0 146.0"></path><path d="M58.0 141.0L55.0 144.0"></path><path d="M235.0 141.0L232.0 147.0"></path><path d="M314.0 141.0L317.0 141.0"></path><path d="M98.0 142.0L98.0 146.0"></path><path d="M269.0 142.0L264.0 143.0"></path><path d="M312.0 142.0L312.0 145.0"></path><path d="M255.0 143.0L262.0 143.0"></path><path d="M428.0 143.0L430.0 146.0"></path><path d="M263.0 144.0L262.0 147.0"></path><path d="M414.0 144.0L414.0 147.0"></path><path d="M421.0 144.0L421.0 148.0"></path><path d="M71.0 145.0L69.0 148.0"></path><path d="M92.0 145.0L91.0 149.0"></path><path d="M217.0 145.0L217.0 152.0"></path><path d="M285.0 145.0L277.0 148.0"></path><path d="M294.0 145.0L298.0 145.0"></path><path d="M300.0 145.0L309.0 145.0"></path><path d="M408.0 145.0L411.0 148.0"></path><path d="M54.0 146.0C53.8 146.7 52.8 149.0 53.0 150.0C53.2 151.0 54.7 151.7 55.0 152.0"></path><path d="M250.0 146.0L252.0 149.0"></path><path d="M61.0 147.0L57.0 151.0"></path><path d="M45.0 148.0L44.0 153.0"></path><path d="M292.0 148.0L295.0 148.0"></path><path d="M275.0 149.0L267.0 153.0"></path><path d="M286.0 149.0L283.0 150.0"></path><path d="M305.0 149.0L309.0 149.0"></path><path d="M411.0 149.0L410.0 152.0"></path><path d="M443.0 149.0L439.0 151.0"></path><path d="M76.0 150.0L82.0 150.0"></path><path d="M246.0 150.0L243.0 154.0"></path><path d="M70.0 151.0L74.0 151.0"></path><path d="M58.0 152.0L62.0 155.0"></path><path d="M218.0 152.0C218.5 152.0 219.8 151.3 221.0 152.0C222.2 152.7 224.3 155.3 225.0 156.0"></path><path d="M76.0 153.0L79.0 154.0"></path><path d="M88.0 153.0L88.0 156.0"></path><path d="M176.0 153.0L172.0 154.0"></path><path d="M228.0 153.0L226.0 156.0"></path><path d="M320.0 153.0L323.0 156.0"></path><path d="M410.0 153.0L411.0 156.0"></path><path d="M45.0 154.0L50.0 158.0"></path><path d="M73.0 154.0L70.0 155.0"></path><path d="M177.0 154.0L182.0 156.0"></path><path d="M265.0 154.0L261.0 155.0"></path><path d="M43.0 155.0L41.0 160.0"></path><path d="M54.0 155.0L51.0 157.0"></path><path d="M80.0 155.0C80.0 155.3 80.7 156.2 80.0 157.0C79.3 157.8 76.7 159.5 76.0 160.0"></path><path d="M245.0 155.0L248.0 155.0"></path><path d="M94.0 156.0L91.0 157.0"></path><path d="M98.0 156.0L103.0 156.0"></path><path d="M216.0 156.0L222.0 162.0"></path><path d="M58.0 157.0L61.0 157.0"></path><path d="M64.0 157.0L67.0 157.0"></path><path d="M97.0 157.0L95.0 161.0"></path><path d="M113.0 157.0L104.0 162.0"></path><path d="M225.0 157.0L223.0 162.0"></path><path d="M245.0 157.0L248.0 158.0"></path><path d="M308.0 157.0C308.3 157.0 309.3 156.3 310.0 157.0C310.7 157.7 311.7 160.3 312.0 161.0"></path><path d="M325.0 157.0L328.0 158.0"></path><path d="M410.0 157.0L406.0 158.0"></path><path d="M57.0 158.0L57.0 164.0"></path><path d="M90.0 158.0L93.0 162.0"></path><path d="M324.0 158.0L323.0 161.0"></path><path d="M50.0 159.0L49.0 162.0"></path><path d="M86.0 159.0L86.0 162.0"></path><path d="M238.0 159.0L238.0 162.0"></path><path d="M339.0 159.0L340.0 162.0"></path><path d="M76.0 160.0C76.5 160.5 78.0 162.8 79.0 163.0C80.0 163.2 81.5 161.3 82.0 161.0"></path><path d="M332.0 160.0L336.0 160.0"></path><path d="M410.0 160.0L413.0 160.0"></path><path d="M69.0 161.0L68.0 165.0"></path><path d="M414.0 161.0L416.0 166.0"></path><path d="M422.0 161.0C422.5 161.2 424.3 161.3 425.0 162.0C425.7 162.7 425.8 164.5 426.0 165.0"></path><path d="M247.0 162.0L239.0 163.0"></path><path d="M272.0 162.0L275.0 163.0"></path><path d="M277.0 162.0C278.3 162.0 283.0 161.5 285.0 162.0C287.0 162.5 288.3 164.5 289.0 165.0"></path><path d="M299.0 162.0L296.0 163.0"></path><path d="M301.0 162.0L308.0 162.0"></path><path d="M313.0 162.0L321.0 162.0"></path><path d="M444.0 162.0L448.0 167.0"></path><path d="M73.0 163.0L72.0 167.0"></path><path d="M102.0 163.0L95.0 165.0"></path><path d="M223.0 163.0L220.0 176.0"></path><path d="M261.0 163.0L268.0 163.0"></path><path d="M400.0 163.0L403.0 165.0"></path><path d="M63.0 164.0L67.0 166.0"></path><path d="M238.0 164.0L239.0 169.0"></path><path d="M252.0 164.0L258.0 165.0"></path><path d="M276.0 164.0L277.0 170.0"></path><path d="M294.0 164.0L289.0 165.0"></path><path d="M421.0 164.0L419.0 167.0"></path><path d="M422.0 164.0L425.0 166.0"></path><path d="M251.0 165.0L250.0 168.0"></path><path d="M259.0 165.0L263.0 168.0"></path><path d="M269.0 165.0L271.0 170.0"></path><path d="M289.0 165.0L290.0 171.0"></path><path d="M301.0 165.0C301.5 165.3 303.0 166.8 304.0 167.0C305.0 167.2 306.5 166.2 307.0 166.0"></path><path d="M50.0 166.0L50.0 170.0"></path><path d="M57.0 166.0L52.0 171.0"></path><path d="M94.0 166.0L94.0 169.0"></path><path d="M325.0 166.0L323.0 170.0"></path><path d="M72.0 167.0L69.0 168.0"></path><path d="M72.0 167.0L76.0 171.0"></path><path d="M88.0 167.0L82.0 168.0"></path><path d="M242.0 167.0L245.0 167.0"></path><path d="M109.0 168.0L99.0 175.0"></path><path d="M343.0 168.0C343.5 168.5 345.5 169.7 346.0 171.0C346.5 172.3 346.0 175.2 346.0 176.0"></path><path d="M403.0 168.0L400.0 170.0"></path><path d="M428.0 168.0L433.0 168.0"></path><path d="M68.0 169.0L73.0 175.0"></path><path d="M94.0 169.0L97.0 176.0"></path><path d="M308.0 169.0L308.0 176.0"></path><path d="M427.0 169.0L427.0 172.0"></path><path d="M436.0 169.0L437.0 172.0"></path><path d="M449.0 169.0L451.0 173.0"></path><path d="M79.0 170.0L76.0 171.0"></path><path d="M313.0 170.0L316.0 170.0"></path><path d="M418.0 170.0L415.0 171.0"></path><path d="M80.0 171.0L79.0 177.0"></path><path d="M248.0 171.0L252.0 174.0"></path><path d="M278.0 171.0C278.3 171.2 279.7 171.2 280.0 172.0C280.3 172.8 280.8 175.2 280.0 176.0C279.2 176.8 275.8 176.8 275.0 177.0"></path><path d="M312.0 171.0L312.0 174.0"></path><path d="M318.0 171.0L322.0 171.0"></path><path d="M340.0 171.0L340.0 177.0"></path><path d="M51.0 172.0L50.0 177.0"></path><path d="M60.0 172.0C59.7 172.5 58.5 171.8 58.0 175.0C57.5 178.2 57.2 188.3 57.0 191.0"></path><path d="M274.0 172.0L274.0 176.0"></path><path d="M292.0 172.0L296.0 172.0"></path><path d="M301.0 172.0L301.0 176.0"></path><path d="M317.0 172.0L317.0 175.0"></path><path d="M323.0 172.0L323.0 176.0"></path><path d="M65.0 173.0L66.0 176.0"></path><path d="M107.0 173.0L106.0 176.0"></path><path d="M291.0 173.0L291.0 176.0"></path><path d="M297.0 173.0C297.2 175.3 298.7 184.5 298.0 187.0C297.3 189.5 293.8 187.8 293.0 188.0"></path><path d="M419.0 173.0L414.0 174.0"></path><path d="M423.0 173.0L426.0 173.0"></path><path d="M428.0 173.0L434.0 173.0"></path><path d="M437.0 173.0L440.0 174.0"></path><path d="M435.0 174.0L436.0 177.0"></path><path d="M442.0 174.0C442.3 174.0 442.7 172.8 444.0 174.0C445.3 175.2 448.7 180.0 450.0 181.0C451.3 182.0 451.7 180.2 452.0 180.0"></path><path d="M38.0 175.0L40.0 180.0"></path><path d="M87.0 175.0L83.0 179.0"></path><path d="M313.0 175.0L316.0 176.0"></path><path d="M441.0 175.0L441.0 178.0"></path><path d="M316.0 176.0C315.8 176.8 314.5 179.8 315.0 181.0C315.5 182.2 318.3 182.7 319.0 183.0"></path><path d="M317.0 176.0L322.0 177.0"></path><path d="M50.0 177.0C50.3 178.2 51.8 182.0 52.0 184.0C52.2 186.0 51.2 188.2 51.0 189.0"></path><path d="M221.0 177.0C221.8 177.8 225.3 180.0 226.0 182.0C226.7 184.0 225.2 187.8 225.0 189.0"></path><path d="M290.0 177.0L286.0 178.0"></path><path d="M340.0 177.0L345.0 177.0"></path><path d="M340.0 177.0L338.0 183.0"></path><path d="M243.0 178.0L247.0 181.0"></path><path d="M291.0 178.0L290.0 181.0"></path><path d="M302.0 178.0L304.0 181.0"></path><path d="M346.0 178.0L347.0 183.0"></path><path d="M48.0 179.0L45.0 187.0"></path><path d="M217.0 179.0L216.0 189.0"></path><path d="M442.0 179.0L448.0 184.0"></path><path d="M454.0 179.0L458.0 185.0"></path><path d="M188.0 180.0C187.3 181.2 184.7 184.0 184.0 187.0C183.3 190.0 184.5 194.7 184.0 198.0C183.5 201.3 181.5 205.5 181.0 207.0"></path><path d="M405.0 181.0L407.0 186.0"></path><path d="M81.0 182.0C81.7 182.3 84.0 182.8 85.0 184.0C86.0 185.2 86.0 188.0 87.0 189.0C88.0 190.0 90.3 189.8 91.0 190.0"></path><path d="M119.0 182.0L117.0 193.0"></path><path d="M238.0 182.0L236.0 188.0"></path><path d="M368.0 182.0C367.7 182.5 366.5 182.8 366.0 185.0C365.5 187.2 365.2 193.3 365.0 195.0"></path><path d="M425.0 182.0L425.0 185.0"></path><path d="M79.0 183.0L78.0 187.0"></path><path d="M248.0 183.0L249.0 188.0"></path><path d="M285.0 183.0L288.0 183.0"></path><path d="M326.0 183.0C327.5 183.0 333.2 182.7 335.0 183.0C336.8 183.3 336.7 184.7 337.0 185.0"></path><path d="M403.0 183.0L404.0 187.0"></path><path d="M114.0 184.0C114.0 185.3 113.5 190.5 114.0 192.0C114.5 193.5 116.5 192.8 117.0 193.0"></path><path d="M121.0 184.0L122.0 195.0"></path><path d="M284.0 184.0L280.0 186.0"></path><path d="M323.0 184.0L324.0 191.0"></path><path d="M339.0 184.0L346.0 184.0"></path><path d="M396.0 184.0C395.7 184.2 394.0 184.3 394.0 185.0C394.0 185.7 395.7 187.5 396.0 188.0"></path><path d="M38.0 185.0L37.0 191.0"></path><path d="M348.0 185.0C348.0 185.8 347.5 188.3 348.0 190.0C348.5 191.7 350.5 194.2 351.0 195.0"></path><path d="M388.0 185.0L387.0 188.0"></path><path d="M277.0 186.0L268.0 187.0"></path><path d="M337.0 186.0L335.0 192.0"></path><path d="M420.0 186.0L424.0 186.0"></path><path d="M264.0 187.0L259.0 188.0"></path><path d="M279.0 187.0L282.0 191.0"></path><path d="M98.0 188.0L96.0 192.0"></path><path d="M99.0 188.0L102.0 188.0"></path><path d="M104.0 188.0L105.0 192.0"></path><path d="M412.0 188.0C412.3 188.5 413.2 190.5 414.0 191.0C414.8 191.5 416.5 191.0 417.0 191.0"></path><path d="M250.0 189.0L256.0 190.0"></path><path d="M316.0 189.0L315.0 193.0"></path><path d="M458.0 189.0L454.0 190.0"></path><path d="M67.0 190.0L66.0 194.0"></path><path d="M217.0 190.0L224.0 190.0"></path><path d="M237.0 190.0L237.0 193.0"></path><path d="M63.0 191.0L63.0 196.0"></path><path d="M215.0 191.0C214.8 191.7 213.5 193.8 214.0 195.0C214.5 196.2 217.3 197.5 218.0 198.0"></path><path d="M225.0 191.0L224.0 197.0"></path><path d="M271.0 191.0L275.0 192.0"></path><path d="M324.0 191.0L329.0 194.0"></path><path d="M389.0 191.0L393.0 192.0"></path><path d="M247.0 192.0L243.0 193.0"></path><path d="M283.0 192.0L285.0 195.0"></path><path d="M370.0 192.0L369.0 196.0"></path><path d="M433.0 192.0L433.0 195.0"></path><path d="M25.0 193.0L28.0 196.0"></path><path d="M32.0 193.0L35.0 193.0"></path><path d="M49.0 193.0L48.0 196.0"></path><path d="M57.0 193.0L57.0 197.0"></path><path d="M80.0 193.0L83.0 196.0"></path><path d="M106.0 193.0L108.0 195.0"></path><path d="M117.0 193.0L119.0 196.0"></path><path d="M260.0 193.0L265.0 194.0"></path><path d="M334.0 193.0L330.0 194.0"></path><path d="M386.0 193.0L387.0 197.0"></path><path d="M394.0 193.0L395.0 197.0"></path><path d="M43.0 194.0L43.0 197.0"></path><path d="M238.0 194.0L241.0 194.0"></path><path d="M322.0 194.0L326.0 197.0"></path><path d="M335.0 194.0L335.0 201.0"></path><path d="M406.0 194.0L407.0 197.0"></path><path d="M422.0 194.0L426.0 194.0"></path><path d="M67.0 195.0L71.0 195.0"></path><path d="M131.0 195.0L132.0 202.0"></path><path d="M237.0 195.0L237.0 198.0"></path><path d="M421.0 195.0C421.0 195.8 420.7 198.8 421.0 200.0C421.3 201.2 422.7 201.7 423.0 202.0"></path><path d="M440.0 195.0L442.0 198.0"></path><path d="M85.0 196.0L88.0 198.0"></path><path d="M98.0 196.0L97.0 199.0"></path><path d="M250.0 196.0L253.0 196.0"></path><path d="M74.0 197.0L73.0 203.0"></path><path d="M91.0 197.0L88.0 198.0"></path><path d="M278.0 197.0L283.0 197.0"></path><path d="M352.0 197.0C352.2 198.7 352.5 205.0 353.0 207.0C353.5 209.0 354.7 208.7 355.0 209.0"></path><path d="M53.0 198.0L52.0 201.0"></path><path d="M63.0 198.0C63.2 199.3 63.3 204.5 64.0 206.0C64.7 207.5 66.2 207.2 67.0 207.0C67.8 206.8 68.7 205.3 69.0 205.0"></path><path d="M277.0 198.0L278.0 202.0"></path><path d="M284.0 198.0L284.0 201.0"></path><path d="M402.0 198.0L405.0 199.0"></path><path d="M42.0 199.0L42.0 205.0"></path><path d="M56.0 199.0L52.0 210.0"></path><path d="M238.0 199.0L241.0 199.0"></path><path d="M269.0 199.0L270.0 202.0"></path><path d="M300.0 199.0C300.0 200.0 299.5 203.8 300.0 205.0C300.5 206.2 302.5 205.8 303.0 206.0"></path><path d="M390.0 199.0L393.0 199.0"></path><path d="M122.0 200.0C121.7 200.3 120.2 201.5 120.0 202.0C119.8 202.5 120.8 202.8 121.0 203.0"></path><path d="M389.0 200.0C389.0 200.7 388.5 203.0 389.0 204.0C389.5 205.0 391.5 205.7 392.0 206.0"></path><path d="M243.0 201.0L243.0 205.0"></path><path d="M307.0 201.0L312.0 202.0"></path><path d="M328.0 201.0L334.0 202.0"></path><path d="M107.0 202.0L108.0 208.0"></path><path d="M125.0 202.0L129.0 202.0"></path><path d="M262.0 202.0L261.0 205.0"></path><path d="M285.0 202.0L294.0 202.0"></path><path d="M24.0 203.0L22.0 208.0"></path><path d="M132.0 203.0C132.3 203.5 133.8 205.2 134.0 206.0C134.2 206.8 133.2 207.7 133.0 208.0"></path><path d="M335.0 203.0L336.0 213.0"></path><path d="M398.0 203.0L401.0 206.0"></path><path d="M291.0 204.0L292.0 207.0"></path><path d="M324.0 204.0L321.0 205.0"></path><path d="M50.0 205.0L49.0 208.0"></path><path d="M126.0 205.0L129.0 206.0"></path><path d="M249.0 205.0L244.0 206.0"></path><path d="M308.0 205.0L317.0 207.0"></path><path d="M366.0 205.0L372.0 206.0"></path><path d="M378.0 205.0L373.0 206.0"></path><path d="M382.0 205.0L385.0 208.0"></path><path d="M81.0 206.0L84.0 206.0"></path><path d="M92.0 206.0L88.0 207.0"></path><path d="M229.0 206.0C228.5 206.3 227.3 207.8 226.0 208.0C224.7 208.2 221.8 207.2 221.0 207.0"></path><path d="M274.0 206.0L279.0 207.0"></path><path d="M307.0 206.0L306.0 209.0"></path><path d="M430.0 206.0L432.0 215.0"></path><path d="M449.0 206.0L448.0 212.0"></path><path d="M212.0 207.0L212.0 215.0"></path><path d="M243.0 207.0L248.0 212.0"></path><path d="M281.0 207.0L287.0 207.0"></path><path d="M325.0 207.0L326.0 212.0"></path><path d="M343.0 207.0L343.0 213.0"></path><path d="M364.0 207.0L371.0 208.0"></path><path d="M220.0 208.0L219.0 215.0"></path><path d="M280.0 208.0L280.0 213.0"></path><path d="M293.0 208.0L297.0 210.0"></path><path d="M35.0 209.0L35.0 215.0"></path><path d="M72.0 209.0L69.0 214.0"></path><path d="M261.0 209.0L260.0 212.0"></path><path d="M381.0 209.0L384.0 209.0"></path><path d="M426.0 209.0L427.0 219.0"></path><path d="M48.0 210.0L47.0 218.0"></path><path d="M110.0 210.0L114.0 211.0"></path><path d="M380.0 210.0L383.0 213.0"></path><path d="M60.0 211.0L60.0 215.0"></path><path d="M133.0 211.0L136.0 214.0"></path><path d="M236.0 211.0L235.0 217.0"></path><path d="M273.0 211.0L271.0 214.0"></path><path d="M300.0 211.0L303.0 211.0"></path><path d="M318.0 211.0L317.0 215.0"></path><path d="M423.0 211.0L423.0 214.0"></path><path d="M52.0 212.0L51.0 215.0"></path><path d="M57.0 212.0L57.0 216.0"></path><path d="M78.0 212.0L81.0 213.0"></path><path d="M115.0 212.0L114.0 218.0"></path><path d="M131.0 212.0C131.0 212.7 130.7 215.0 131.0 216.0C131.3 217.0 132.7 217.7 133.0 218.0"></path><path d="M402.0 212.0L400.0 215.0"></path><path d="M410.0 212.0L414.0 212.0"></path><path d="M419.0 212.0L422.0 215.0"></path><path d="M441.0 212.0C441.3 212.2 442.5 211.5 443.0 213.0C443.5 214.5 443.8 219.7 444.0 221.0"></path><path d="M327.0 213.0L330.0 213.0"></path><path d="M354.0 213.0C354.0 214.3 353.7 219.3 354.0 221.0C354.3 222.7 355.7 222.7 356.0 223.0"></path><path d="M409.0 213.0L410.0 218.0"></path><path d="M439.0 213.0L439.0 219.0"></path><path d="M342.0 214.0L336.0 216.0"></path><path d="M193.0 215.0L196.0 215.0"></path><path d="M279.0 215.0L276.0 225.0"></path><path d="M7.0 216.0L5.0 224.0"></path><path d="M66.0 216.0L70.0 219.0"></path><path d="M198.0 216.0C198.7 216.5 200.3 218.3 202.0 219.0C203.7 219.7 207.0 219.8 208.0 220.0"></path><path d="M213.0 216.0L218.0 216.0"></path><path d="M423.0 216.0L422.0 219.0"></path><path d="M98.0 217.0L97.0 223.0"></path><path d="M219.0 217.0L218.0 222.0"></path><path d="M269.0 217.0L268.0 224.0"></path><path d="M433.0 217.0L433.0 223.0"></path><path d="M448.0 217.0L448.0 220.0"></path><path d="M53.0 218.0L53.0 226.0"></path><path d="M236.0 218.0L240.0 220.0"></path><path d="M259.0 218.0L255.0 220.0"></path><path d="M263.0 218.0L263.0 223.0"></path><path d="M0.0 219.0L0.0 226.0"></path><path d="M56.0 219.0L56.0 227.0"></path><path d="M60.0 219.0L60.0 222.0"></path><path d="M91.0 219.0L96.0 225.0"></path><path d="M114.0 219.0L117.0 221.0"></path><path d="M252.0 219.0L255.0 220.0"></path><path d="M331.0 219.0L326.0 220.0"></path><path d="M23.0 220.0L27.0 222.0"></path><path d="M212.0 220.0L217.0 223.0"></path><path d="M332.0 220.0L331.0 226.0"></path><path d="M383.0 220.0L387.0 220.0"></path><path d="M423.0 220.0L426.0 220.0"></path><path d="M459.0 220.0L459.0 223.0"></path><path d="M14.0 221.0L14.0 228.0"></path><path d="M33.0 221.0L34.0 230.0"></path><path d="M36.0 221.0L37.0 225.0"></path><path d="M49.0 221.0L49.0 229.0"></path><path d="M80.0 221.0L76.0 223.0"></path><path d="M84.0 221.0C84.5 221.5 86.5 223.0 87.0 224.0C87.5 225.0 87.0 226.5 87.0 227.0"></path><path d="M110.0 221.0L111.0 226.0"></path><path d="M306.0 221.0C306.3 221.5 307.8 223.2 308.0 224.0C308.2 224.8 307.2 225.7 307.0 226.0"></path><path d="M382.0 221.0L382.0 226.0"></path><path d="M412.0 221.0L414.0 224.0"></path><path d="M31.0 222.0L31.0 225.0"></path><path d="M81.0 222.0L81.0 228.0"></path><path d="M135.0 222.0C135.2 223.2 135.2 227.3 136.0 229.0C136.8 230.7 139.3 231.5 140.0 232.0"></path><path d="M245.0 222.0C245.0 223.3 244.5 227.0 245.0 230.0C245.5 233.0 247.5 238.3 248.0 240.0"></path><path d="M376.0 222.0L380.0 227.0"></path><path d="M28.0 223.0L28.0 226.0"></path><path d="M102.0 223.0L98.0 224.0"></path><path d="M421.0 223.0L421.0 227.0"></path><path d="M439.0 223.0L439.0 226.0"></path><path d="M217.0 224.0L216.0 232.0"></path><path d="M261.0 224.0C260.7 224.0 259.8 223.2 259.0 224.0C258.2 224.8 256.5 227.0 256.0 229.0C255.5 231.0 256.0 234.8 256.0 236.0"></path><path d="M302.0 224.0L306.0 226.0"></path><path d="M454.0 224.0L454.0 228.0"></path><path d="M325.0 225.0L330.0 226.0"></path><path d="M364.0 225.0L367.0 226.0"></path><path d="M446.0 225.0L447.0 230.0"></path><path d="M43.0 226.0L43.0 232.0"></path><path d="M111.0 226.0L107.0 228.0"></path><path d="M111.0 226.0L114.0 229.0"></path><path d="M188.0 226.0L185.0 227.0"></path><path d="M267.0 226.0L266.0 231.0"></path><path d="M415.0 226.0L416.0 229.0"></path><path d="M38.0 227.0L37.0 232.0"></path><path d="M71.0 227.0L76.0 233.0"></path><path d="M124.0 227.0C123.8 227.5 123.5 229.8 123.0 230.0C122.5 230.2 121.3 228.3 121.0 228.0"></path><path d="M307.0 227.0L304.0 230.0"></path><path d="M331.0 227.0L330.0 233.0"></path><path d="M0.0 228.0L0.0 231.0"></path><path d="M18.0 228.0L15.0 229.0"></path><path d="M27.0 228.0L26.0 231.0"></path><path d="M195.0 228.0L200.0 229.0"></path><path d="M274.0 228.0L278.0 229.0"></path><path d="M355.0 228.0L353.0 232.0"></path><path d="M356.0 228.0L360.0 230.0"></path><path d="M368.0 228.0L368.0 231.0"></path><path d="M375.0 228.0L380.0 229.0"></path><path d="M4.0 229.0L5.0 235.0"></path><path d="M20.0 229.0L20.0 233.0"></path><path d="M86.0 229.0L83.0 231.0"></path><path d="M107.0 229.0C107.5 229.5 109.5 231.0 110.0 232.0C110.5 233.0 110.0 234.5 110.0 235.0"></path><path d="M202.0 229.0L206.0 229.0"></path><path d="M208.0 229.0C208.5 229.0 209.8 228.3 211.0 229.0C212.2 229.7 214.3 232.3 215.0 233.0"></path><path d="M271.0 229.0L271.0 233.0"></path><path d="M49.0 230.0L50.0 234.0"></path><path d="M66.0 230.0C66.0 230.5 65.5 232.2 66.0 233.0C66.5 233.8 68.5 234.7 69.0 235.0"></path><path d="M324.0 230.0L329.0 233.0"></path><path d="M382.0 230.0L384.0 234.0"></path><path d="M418.0 230.0L421.0 230.0"></path><path d="M194.0 231.0L200.0 231.0"></path><path d="M201.0 231.0C202.2 231.2 206.5 231.5 208.0 232.0C209.5 232.5 209.7 233.7 210.0 234.0"></path><path d="M303.0 231.0L303.0 235.0"></path><path d="M311.0 231.0L311.0 235.0"></path><path d="M381.0 231.0L383.0 240.0"></path><path d="M417.0 231.0L419.0 237.0"></path><path d="M15.0 232.0L19.0 233.0"></path><path d="M55.0 232.0L54.0 235.0"></path><path d="M25.0 233.0L26.0 236.0"></path><path d="M98.0 233.0L102.0 233.0"></path><path d="M353.0 233.0C352.7 234.2 351.0 238.2 351.0 240.0C351.0 241.8 352.7 243.3 353.0 244.0"></path><path d="M459.0 233.0L459.0 241.0"></path><path d="M20.0 234.0L18.0 243.0"></path><path d="M115.0 234.0L115.0 237.0"></path><path d="M231.0 234.0C231.2 234.2 232.3 234.3 232.0 235.0C231.7 235.7 229.8 236.0 229.0 238.0C228.2 240.0 227.3 245.5 227.0 247.0"></path><path d="M286.0 234.0L286.0 237.0"></path><path d="M371.0 234.0L372.0 237.0"></path><path d="M50.0 235.0L51.0 239.0"></path><path d="M261.0 235.0L261.0 242.0"></path><path d="M271.0 235.0L276.0 237.0"></path><path d="M298.0 235.0L302.0 236.0"></path><path d="M330.0 235.0L332.0 243.0"></path><path d="M404.0 235.0L408.0 236.0"></path><path d="M404.0 235.0L403.0 242.0"></path><path d="M0.0 236.0L0.0 239.0"></path><path d="M38.0 236.0L38.0 239.0"></path><path d="M105.0 236.0L109.0 236.0"></path><path d="M304.0 236.0L310.0 236.0"></path><path d="M425.0 236.0L425.0 240.0"></path><path d="M45.0 237.0L47.0 243.0"></path><path d="M67.0 237.0L64.0 239.0"></path><path d="M10.0 238.0C10.3 238.3 11.7 239.0 12.0 240.0C12.3 241.0 12.0 243.3 12.0 244.0"></path><path d="M27.0 238.0L28.0 245.0"></path><path d="M119.0 238.0C119.8 238.0 123.2 237.3 124.0 238.0C124.8 238.7 124.0 241.3 124.0 242.0"></path><path d="M315.0 238.0L318.0 240.0"></path><path d="M322.0 238.0L326.0 238.0"></path><path d="M444.0 238.0L444.0 244.0"></path><path d="M341.0 239.0L341.0 243.0"></path><path d="M37.0 240.0L34.0 244.0"></path><path d="M63.0 240.0C63.0 242.2 63.3 250.2 63.0 253.0C62.7 255.8 61.3 256.3 61.0 257.0"></path><path d="M131.0 240.0C131.0 240.7 130.5 242.8 131.0 244.0C131.5 245.2 133.5 246.5 134.0 247.0"></path><path d="M147.0 240.0L149.0 243.0"></path><path d="M365.0 240.0L361.0 241.0"></path><path d="M375.0 240.0L375.0 245.0"></path><path d="M455.0 240.0L458.0 247.0"></path><path d="M96.0 241.0L101.0 241.0"></path><path d="M135.0 241.0L135.0 246.0"></path><path d="M142.0 241.0L144.0 251.0"></path><path d="M221.0 241.0L221.0 247.0"></path><path d="M279.0 241.0L283.0 245.0"></path><path d="M319.0 241.0L319.0 244.0"></path><path d="M95.0 242.0L92.0 253.0"></path><path d="M102.0 242.0L104.0 252.0"></path><path d="M246.0 242.0L241.0 245.0"></path><path d="M250.0 242.0C250.5 242.2 252.7 242.0 253.0 243.0C253.3 244.0 252.2 247.2 252.0 248.0"></path><path d="M268.0 242.0L272.0 247.0"></path><path d="M360.0 242.0C360.3 242.3 361.0 243.7 362.0 244.0C363.0 244.3 365.3 244.0 366.0 244.0"></path><path d="M70.0 243.0L71.0 248.0"></path><path d="M262.0 243.0L263.0 248.0"></path><path d="M382.0 243.0L379.0 244.0"></path><path d="M403.0 243.0L403.0 247.0"></path><path d="M429.0 243.0L431.0 247.0"></path><path d="M432.0 243.0C432.3 244.0 433.2 247.8 434.0 249.0C434.8 250.2 436.5 249.8 437.0 250.0"></path><path d="M42.0 244.0L45.0 247.0"></path><path d="M259.0 244.0L259.0 252.0"></path><path d="M334.0 244.0L340.0 244.0"></path><path d="M418.0 244.0C418.5 244.7 420.5 246.5 421.0 248.0C421.5 249.5 421.0 252.2 421.0 253.0"></path><path d="M13.0 245.0L16.0 245.0"></path><path d="M17.0 245.0L17.0 250.0"></path><path d="M68.0 245.0L68.0 254.0"></path><path d="M118.0 245.0L121.0 245.0"></path><path d="M341.0 245.0L340.0 252.0"></path><path d="M411.0 245.0C411.3 245.2 412.7 243.2 413.0 246.0C413.3 248.8 413.0 259.3 413.0 262.0"></path><path d="M11.0 246.0L6.0 247.0"></path><path d="M148.0 246.0L146.0 249.0"></path><path d="M152.0 246.0L153.0 250.0"></path><path d="M322.0 246.0L332.0 246.0"></path><path d="M440.0 246.0L438.0 250.0"></path><path d="M0.0 247.0L0.0 252.0"></path><path d="M12.0 247.0L13.0 251.0"></path><path d="M28.0 247.0L27.0 265.0"></path><path d="M47.0 247.0L51.0 247.0"></path><path d="M76.0 247.0L76.0 250.0"></path><path d="M85.0 247.0L82.0 249.0"></path><path d="M234.0 247.0L228.0 248.0"></path><path d="M321.0 247.0L324.0 255.0"></path><path d="M354.0 247.0L357.0 249.0"></path><path d="M125.0 248.0L130.0 251.0"></path><path d="M136.0 248.0C136.5 248.5 138.5 250.0 139.0 251.0C139.5 252.0 139.0 253.5 139.0 254.0"></path><path d="M222.0 248.0L226.0 248.0"></path><path d="M333.0 248.0L336.0 255.0"></path><path d="M404.0 248.0L408.0 248.0"></path><path d="M46.0 249.0L47.0 254.0"></path><path d="M221.0 249.0L221.0 252.0"></path><path d="M228.0 249.0L229.0 254.0"></path><path d="M264.0 249.0L269.0 249.0"></path><path d="M409.0 249.0C408.8 251.0 407.8 258.7 408.0 261.0C408.2 263.3 409.7 262.7 410.0 263.0"></path><path d="M72.0 250.0L72.0 254.0"></path><path d="M270.0 250.0L270.0 253.0"></path><path d="M330.0 250.0L328.0 253.0"></path><path d="M349.0 250.0L348.0 256.0"></path><path d="M57.0 251.0L55.0 257.0"></path><path d="M152.0 251.0L149.0 252.0"></path><path d="M374.0 251.0L379.0 253.0"></path><path d="M402.0 251.0L401.0 254.0"></path><path d="M438.0 251.0C438.3 251.7 439.3 254.3 440.0 255.0C440.7 255.7 441.5 255.5 442.0 255.0C442.5 254.5 442.8 252.5 443.0 252.0"></path><path d="M458.0 251.0L456.0 254.0"></path><path d="M115.0 252.0L118.0 256.0"></path><path d="M153.0 252.0L156.0 259.0"></path><path d="M37.0 253.0L40.0 253.0"></path><path d="M86.0 253.0L83.0 260.0"></path><path d="M96.0 253.0L99.0 254.0"></path><path d="M104.0 253.0L107.0 256.0"></path><path d="M123.0 253.0L123.0 256.0"></path><path d="M221.0 253.0L222.0 258.0"></path><path d="M253.0 253.0L258.0 253.0"></path><path d="M43.0 254.0L46.0 255.0"></path><path d="M78.0 254.0C77.5 254.2 75.8 253.7 75.0 255.0C74.2 256.3 73.3 260.8 73.0 262.0"></path><path d="M95.0 254.0L92.0 262.0"></path><path d="M210.0 254.0L212.0 259.0"></path><path d="M234.0 254.0L230.0 255.0"></path><path d="M247.0 254.0L240.0 256.0"></path><path d="M269.0 254.0L260.0 255.0"></path><path d="M401.0 254.0L399.0 258.0"></path><path d="M401.0 254.0C401.7 254.5 404.3 256.2 405.0 257.0C405.7 257.8 405.0 258.7 405.0 259.0"></path><path d="M35.0 255.0L32.0 262.0"></path><path d="M41.0 255.0L40.0 265.0"></path><path d="M91.0 255.0L88.0 259.0"></path><path d="M129.0 255.0L127.0 258.0"></path><path d="M138.0 256.0L135.0 262.0"></path><path d="M146.0 256.0L147.0 259.0"></path><path d="M229.0 256.0L225.0 258.0"></path><path d="M324.0 256.0L324.0 266.0"></path><path d="M327.0 256.0L334.0 260.0"></path><path d="M449.0 256.0C449.2 258.8 448.8 270.2 450.0 273.0C451.2 275.8 455.0 273.0 456.0 273.0"></path><path d="M456.0 256.0L456.0 271.0"></path><path d="M459.0 256.0L459.0 261.0"></path><path d="M48.0 257.0L51.0 259.0"></path><path d="M55.0 257.0L59.0 259.0"></path><path d="M103.0 257.0L106.0 257.0"></path><path d="M349.0 257.0L353.0 257.0"></path><path d="M359.0 257.0L360.0 264.0"></path><path d="M255.0 258.0L258.0 258.0"></path><path d="M274.0 258.0C274.7 258.0 277.2 257.7 278.0 258.0C278.8 258.3 278.8 259.7 279.0 260.0"></path><path d="M354.0 258.0L354.0 261.0"></path><path d="M8.0 259.0L11.0 261.0"></path><path d="M259.0 259.0L258.0 264.0"></path><path d="M337.0 259.0C337.3 259.3 337.3 260.8 339.0 261.0C340.7 261.2 345.7 260.2 347.0 260.0"></path><path d="M370.0 259.0L372.0 263.0"></path><path d="M382.0 259.0L386.0 259.0"></path><path d="M59.0 260.0L58.0 264.0"></path><path d="M235.0 260.0C235.5 260.3 236.7 261.8 238.0 262.0C239.3 262.2 242.2 261.2 243.0 261.0"></path><path d="M334.0 260.0L335.0 268.0"></path><path d="M348.0 260.0L351.0 264.0"></path><path d="M387.0 260.0L386.0 263.0"></path><path d="M400.0 260.0L401.0 264.0"></path><path d="M428.0 260.0C428.3 260.5 429.7 261.5 430.0 263.0C430.3 264.5 430.0 268.0 430.0 269.0"></path><path d="M52.0 261.0L52.0 267.0"></path><path d="M84.0 261.0L87.0 261.0"></path><path d="M148.0 261.0L147.0 270.0"></path><path d="M151.0 261.0C151.3 261.8 152.7 263.8 153.0 266.0C153.3 268.2 153.0 272.7 153.0 274.0"></path><path d="M157.0 261.0L159.0 271.0"></path><path d="M215.0 261.0L222.0 261.0"></path><path d="M274.0 261.0L278.0 261.0"></path><path d="M295.0 261.0L299.0 261.0"></path><path d="M79.0 262.0L79.0 265.0"></path><path d="M223.0 262.0L223.0 273.0"></path><path d="M266.0 262.0L265.0 267.0"></path><path d="M273.0 262.0L272.0 267.0"></path><path d="M300.0 262.0C300.0 262.5 299.3 263.8 300.0 265.0C300.7 266.2 303.3 268.3 304.0 269.0"></path><path d="M91.0 263.0L87.0 265.0"></path><path d="M233.0 263.0C232.8 263.5 231.8 265.0 232.0 266.0C232.2 267.0 233.7 268.5 234.0 269.0"></path><path d="M49.0 264.0L49.0 267.0"></path><path d="M134.0 264.0L139.0 266.0"></path><path d="M373.0 264.0L380.0 264.0"></path><path d="M381.0 264.0L384.0 264.0"></path><path d="M409.0 264.0L403.0 265.0"></path><path d="M433.0 264.0L433.0 268.0"></path><path d="M17.0 265.0L21.0 266.0"></path><path d="M255.0 265.0L252.0 266.0"></path><path d="M258.0 265.0L261.0 270.0"></path><path d="M360.0 265.0L360.0 270.0"></path><path d="M414.0 265.0L417.0 269.0"></path><path d="M8.0 266.0L6.0 273.0"></path><path d="M16.0 266.0L19.0 271.0"></path><path d="M22.0 266.0L26.0 266.0"></path><path d="M81.0 266.0L84.0 266.0"></path><path d="M140.0 266.0L144.0 272.0"></path><path d="M246.0 266.0L250.0 266.0"></path><path d="M1.0 267.0L2.0 271.0"></path><path d="M251.0 267.0L253.0 270.0"></path><path d="M323.0 267.0L317.0 268.0"></path><path d="M442.0 267.0L443.0 273.0"></path><path d="M59.0 268.0L59.0 272.0"></path><path d="M81.0 268.0L84.0 269.0"></path><path d="M92.0 268.0L96.0 268.0"></path><path d="M266.0 268.0L270.0 268.0"></path><path d="M273.0 268.0L279.0 269.0"></path><path d="M316.0 268.0L305.0 269.0"></path><path d="M438.0 268.0L439.0 271.0"></path><path d="M27.0 269.0L27.0 273.0"></path><path d="M66.0 269.0C65.8 269.5 64.8 271.3 65.0 272.0C65.2 272.7 66.7 272.8 67.0 273.0"></path><path d="M69.0 269.0L68.0 272.0"></path><path d="M103.0 269.0L98.0 271.0"></path><path d="M205.0 269.0L202.0 272.0"></path><path d="M271.0 269.0L271.0 272.0"></path><path d="M283.0 269.0L287.0 272.0"></path><path d="M296.0 269.0C296.5 268.8 298.0 267.7 299.0 268.0C300.0 268.3 301.5 270.5 302.0 271.0"></path><path d="M317.0 269.0L317.0 276.0"></path><path d="M334.0 269.0L329.0 270.0"></path><path d="M335.0 269.0L337.0 273.0"></path><path d="M387.0 269.0L390.0 270.0"></path><path d="M404.0 269.0L407.0 269.0"></path><path d="M39.0 270.0C39.3 270.5 40.7 271.7 41.0 273.0C41.3 274.3 41.0 277.2 41.0 278.0"></path><path d="M77.0 270.0L77.0 273.0"></path><path d="M89.0 270.0L89.0 273.0"></path><path d="M104.0 270.0L103.0 273.0"></path><path d="M206.0 270.0L204.0 273.0"></path><path d="M280.0 270.0L279.0 276.0"></path><path d="M344.0 270.0L339.0 272.0"></path><path d="M391.0 270.0L394.0 270.0"></path><path d="M403.0 270.0L403.0 273.0"></path><path d="M36.0 271.0L31.0 273.0"></path><path d="M210.0 271.0L210.0 276.0"></path><path d="M213.0 271.0L213.0 276.0"></path><path d="M240.0 271.0C239.8 271.3 239.7 272.7 239.0 273.0C238.3 273.3 236.5 273.0 236.0 273.0"></path><path d="M327.0 271.0L326.0 276.0"></path><path d="M329.0 271.0L331.0 276.0"></path><path d="M408.0 271.0L408.0 274.0"></path><path d="M418.0 271.0L418.0 274.0"></path><path d="M245.0 272.0L245.0 275.0"></path><path d="M288.0 272.0C288.7 271.8 291.0 270.8 292.0 271.0C293.0 271.2 293.7 272.7 294.0 273.0"></path><path d="M22.0 273.0L25.0 274.0"></path><path d="M146.0 273.0L150.0 276.0"></path><path d="M288.0 273.0L288.0 277.0"></path><path d="M301.0 273.0L297.0 275.0"></path><path d="M348.0 273.0L349.0 278.0"></path><path d="M430.0 273.0L432.0 277.0"></path><path d="M459.0 273.0L459.0 277.0"></path><path d="M19.0 274.0L19.0 278.0"></path><path d="M119.0 274.0L119.0 278.0"></path><path d="M126.0 274.0L129.0 278.0"></path><path d="M269.0 274.0L267.0 276.0"></path><path d="M338.0 274.0L339.0 279.0"></path><path d="M367.0 274.0L370.0 275.0"></path><path d="M398.0 274.0L401.0 274.0"></path><path d="M428.0 274.0L428.0 277.0"></path><path d="M1.0 275.0L4.0 275.0"></path><path d="M246.0 275.0L249.0 275.0"></path><path d="M276.0 275.0L279.0 276.0"></path><path d="M402.0 275.0L405.0 276.0"></path><path d="M0.0 276.0L0.0 284.0"></path><path d="M226.0 276.0L234.0 276.0"></path><path d="M395.0 276.0L390.0 277.0"></path><path d="M414.0 276.0L413.0 282.0"></path><path d="M150.0 277.0L150.0 284.0"></path><path d="M193.0 277.0L193.0 281.0"></path><path d="M196.0 277.0L196.0 280.0"></path><path d="M225.0 277.0L225.0 282.0"></path><path d="M235.0 277.0L234.0 280.0"></path><path d="M256.0 277.0L252.0 278.0"></path><path d="M266.0 277.0L269.0 283.0"></path><path d="M327.0 277.0L330.0 277.0"></path><path d="M115.0 278.0L118.0 279.0"></path><path d="M212.0 278.0L213.0 284.0"></path><path d="M257.0 278.0L256.0 282.0"></path><path d="M288.0 278.0L293.0 282.0"></path><path d="M316.0 278.0L313.0 279.0"></path><path d="M360.0 278.0L358.0 281.0"></path><path d="M390.0 278.0L392.0 282.0"></path><path d="M420.0 278.0L423.0 285.0"></path><path d="M432.0 278.0L433.0 281.0"></path><path d="M441.0 278.0L442.0 283.0"></path><path d="M40.0 279.0L36.0 280.0"></path><path d="M41.0 279.0C41.3 279.3 42.7 280.0 43.0 281.0C43.3 282.0 43.0 284.3 43.0 285.0"></path><path d="M92.0 279.0L87.0 281.0"></path><path d="M113.0 279.0L108.0 283.0"></path><path d="M123.0 279.0L126.0 282.0"></path><path d="M204.0 279.0L203.0 282.0"></path><path d="M427.0 279.0L426.0 284.0"></path><path d="M83.0 280.0L82.0 291.0"></path><path d="M139.0 280.0L135.0 282.0"></path><path d="M206.0 280.0L206.0 283.0"></path><path d="M209.0 280.0L209.0 290.0"></path><path d="M417.0 280.0L417.0 283.0"></path><path d="M75.0 281.0L74.0 286.0"></path><path d="M246.0 281.0L249.0 286.0"></path><path d="M8.0 282.0L11.0 285.0"></path><path d="M17.0 282.0L14.0 284.0"></path><path d="M219.0 282.0L224.0 283.0"></path><path d="M307.0 282.0L301.0 283.0"></path><path d="M350.0 282.0L356.0 283.0"></path><path d="M429.0 282.0L429.0 285.0"></path><path d="M119.0 283.0L120.0 286.0"></path><path d="M135.0 283.0L140.0 288.0"></path><path d="M195.0 283.0L194.0 286.0"></path><path d="M203.0 283.0L202.0 288.0"></path><path d="M257.0 283.0L260.0 285.0"></path><path d="M283.0 283.0L289.0 286.0"></path><path d="M333.0 283.0L332.0 286.0"></path><path d="M349.0 283.0L349.0 288.0"></path><path d="M365.0 283.0L362.0 284.0"></path><path d="M393.0 283.0L403.0 284.0"></path><path d="M299.0 284.0L299.0 290.0"></path><path d="M301.0 284.0L305.0 289.0"></path><path d="M23.0 285.0L27.0 285.0"></path><path d="M79.0 285.0L79.0 289.0"></path><path d="M205.0 285.0L205.0 288.0"></path><path d="M243.0 285.0L242.0 291.0"></path><path d="M262.0 285.0L267.0 285.0"></path><path d="M383.0 285.0L387.0 285.0"></path><path d="M6.0 286.0L4.0 293.0"></path><path d="M15.0 286.0L18.0 287.0"></path><path d="M44.0 286.0L45.0 290.0"></path><path d="M251.0 286.0L256.0 289.0"></path><path d="M316.0 286.0L322.0 286.0"></path><path d="M406.0 286.0L410.0 286.0"></path><path d="M42.0 287.0L42.0 290.0"></path><path d="M191.0 287.0L191.0 290.0"></path><path d="M194.0 287.0L194.0 290.0"></path><path d="M261.0 287.0L261.0 292.0"></path><path d="M332.0 287.0L334.0 290.0"></path><path d="M419.0 287.0L422.0 290.0"></path><path d="M440.0 287.0L442.0 294.0"></path><path d="M12.0 288.0L12.0 291.0"></path><path d="M105.0 288.0L107.0 291.0"></path><path d="M140.0 288.0L139.0 292.0"></path><path d="M277.0 288.0L269.0 289.0"></path><path d="M446.0 288.0L448.0 291.0"></path><path d="M29.0 289.0L23.0 291.0"></path><path d="M54.0 289.0C54.8 288.8 57.5 287.7 59.0 288.0C60.5 288.3 62.3 290.5 63.0 291.0"></path><path d="M71.0 289.0L71.0 292.0"></path><path d="M94.0 289.0C93.2 288.8 90.2 287.8 89.0 288.0C87.8 288.2 87.3 289.7 87.0 290.0"></path><path d="M229.0 289.0L237.0 293.0"></path><path d="M0.0 290.0L0.0 294.0"></path><path d="M34.0 290.0L38.0 291.0"></path><path d="M54.0 290.0L56.0 294.0"></path><path d="M87.0 290.0L91.0 292.0"></path><path d="M103.0 290.0L102.0 294.0"></path><path d="M125.0 290.0L124.0 295.0"></path><path d="M204.0 290.0L204.0 293.0"></path><path d="M219.0 290.0L218.0 293.0"></path><path d="M228.0 290.0L227.0 298.0"></path><path d="M281.0 290.0L284.0 292.0"></path><path d="M305.0 290.0L300.0 291.0"></path><path d="M374.0 290.0L377.0 290.0"></path><path d="M379.0 290.0L383.0 290.0"></path><path d="M75.0 291.0L77.0 294.0"></path><path d="M191.0 291.0C190.7 292.5 189.2 297.0 189.0 300.0C188.8 303.0 189.8 307.5 190.0 309.0"></path><path d="M352.0 291.0C352.8 291.5 356.2 292.8 357.0 294.0C357.8 295.2 357.0 297.3 357.0 298.0"></path><path d="M426.0 291.0L426.0 294.0"></path><path d="M44.0 292.0L44.0 295.0"></path><path d="M53.0 292.0L53.0 297.0"></path><path d="M84.0 292.0L85.0 295.0"></path><path d="M108.0 292.0L114.0 292.0"></path><path d="M131.0 292.0L138.0 293.0"></path><path d="M193.0 292.0L192.0 308.0"></path><path d="M209.0 292.0L209.0 295.0"></path><path d="M213.0 292.0L211.0 296.0"></path><path d="M224.0 292.0L224.0 297.0"></path><path d="M293.0 292.0L292.0 296.0"></path><path d="M297.0 292.0L298.0 296.0"></path><path d="M332.0 292.0L329.0 293.0"></path><path d="M418.0 292.0L418.0 295.0"></path><path d="M435.0 292.0L436.0 296.0"></path><path d="M23.0 293.0L28.0 294.0"></path><path d="M71.0 293.0L73.0 296.0"></path><path d="M92.0 293.0L91.0 296.0"></path><path d="M114.0 293.0L114.0 300.0"></path><path d="M201.0 293.0L200.0 298.0"></path><path d="M285.0 293.0L291.0 297.0"></path><path d="M380.0 293.0C380.7 293.3 382.0 294.7 384.0 295.0C386.0 295.3 390.7 295.0 392.0 295.0"></path><path d="M18.0 294.0L21.0 294.0"></path><path d="M139.0 294.0C139.0 295.0 138.5 298.5 139.0 300.0C139.5 301.5 141.5 302.5 142.0 303.0"></path><path d="M238.0 294.0L240.0 307.0"></path><path d="M241.0 294.0L241.0 300.0"></path><path d="M364.0 294.0L362.0 299.0"></path><path d="M404.0 294.0L408.0 298.0"></path><path d="M426.0 294.0L427.0 297.0"></path><path d="M16.0 295.0L13.0 296.0"></path><path d="M28.0 295.0L28.0 298.0"></path><path d="M57.0 295.0L61.0 295.0"></path><path d="M131.0 295.0L131.0 300.0"></path><path d="M203.0 295.0L203.0 299.0"></path><path d="M321.0 295.0L318.0 296.0"></path><path d="M369.0 295.0L369.0 301.0"></path><path d="M432.0 295.0L430.0 298.0"></path><path d="M0.0 296.0L0.0 302.0"></path><path d="M45.0 296.0L48.0 296.0"></path><path d="M63.0 296.0C63.3 296.3 64.7 297.0 65.0 298.0C65.3 299.0 65.0 301.3 65.0 302.0"></path><path d="M85.0 296.0L82.0 297.0"></path><path d="M86.0 296.0L89.0 298.0"></path><path d="M123.0 296.0L121.0 299.0"></path><path d="M127.0 296.0L129.0 301.0"></path><path d="M264.0 296.0L263.0 299.0"></path><path d="M277.0 296.0L281.0 296.0"></path><path d="M340.0 296.0L344.0 298.0"></path><path d="M91.0 297.0L95.0 298.0"></path><path d="M149.0 297.0C149.5 297.3 151.5 297.8 152.0 299.0C152.5 300.2 152.0 303.2 152.0 304.0"></path><path d="M317.0 297.0L317.0 300.0"></path><path d="M22.0 298.0L27.0 299.0"></path><path d="M75.0 298.0L73.0 301.0"></path><path d="M255.0 298.0C254.7 298.7 253.2 300.3 253.0 302.0C252.8 303.7 253.8 307.0 254.0 308.0"></path><path d="M268.0 298.0L271.0 298.0"></path><path d="M56.0 299.0L59.0 299.0"></path><path d="M226.0 299.0L225.0 312.0"></path><path d="M290.0 299.0L286.0 300.0"></path><path d="M199.0 300.0L199.0 318.0"></path><path d="M223.0 300.0L222.0 312.0"></path><path d="M276.0 300.0L284.0 300.0"></path><path d="M294.0 300.0L297.0 300.0"></path><path d="M363.0 300.0L368.0 302.0"></path><path d="M53.0 301.0L56.0 305.0"></path><path d="M267.0 301.0C267.3 301.3 268.0 302.8 269.0 303.0C270.0 303.2 272.3 302.2 273.0 302.0"></path><path d="M349.0 301.0L353.0 301.0"></path><path d="M449.0 301.0L453.0 301.0"></path><path d="M47.0 302.0L51.0 302.0"></path><path d="M81.0 302.0L79.0 305.0"></path><path d="M293.0 302.0L295.0 305.0"></path><path d="M332.0 302.0L335.0 302.0"></path><path d="M348.0 302.0C347.8 302.5 346.7 303.8 347.0 305.0C347.3 306.2 349.5 308.3 350.0 309.0"></path><path d="M361.0 302.0L365.0 305.0"></path><path d="M370.0 302.0L374.0 302.0"></path><path d="M6.0 303.0L9.0 304.0"></path><path d="M46.0 303.0L46.0 308.0"></path><path d="M61.0 303.0L64.0 303.0"></path><path d="M301.0 303.0L304.0 303.0"></path><path d="M330.0 303.0L326.0 304.0"></path><path d="M330.0 303.0L333.0 308.0"></path><path d="M336.0 303.0L336.0 306.0"></path><path d="M394.0 303.0L404.0 304.0"></path><path d="M413.0 303.0L416.0 303.0"></path><path d="M418.0 303.0L424.0 303.0"></path><path d="M0.0 304.0L0.0 307.0"></path><path d="M5.0 304.0L5.0 308.0"></path><path d="M25.0 304.0L21.0 308.0"></path><path d="M65.0 304.0L65.0 309.0"></path><path d="M417.0 304.0L419.0 308.0"></path><path d="M10.0 305.0L10.0 308.0"></path><path d="M69.0 305.0L71.0 309.0"></path><path d="M85.0 305.0L80.0 306.0"></path><path d="M208.0 305.0L209.0 312.0"></path><path d="M286.0 305.0L289.0 310.0"></path><path d="M290.0 305.0L290.0 309.0"></path><path d="M370.0 305.0L375.0 305.0"></path><path d="M426.0 305.0C426.3 305.3 428.2 306.5 428.0 307.0C427.8 307.5 425.5 307.8 425.0 308.0"></path><path d="M60.0 306.0L61.0 310.0"></path><path d="M121.0 306.0L126.0 306.0"></path><path d="M204.0 306.0L205.0 309.0"></path><path d="M261.0 306.0L264.0 309.0"></path><path d="M322.0 306.0C321.3 306.3 318.7 307.2 318.0 308.0C317.3 308.8 318.0 310.5 318.0 311.0"></path><path d="M376.0 306.0L376.0 309.0"></path><path d="M454.0 306.0L451.0 310.0"></path><path d="M94.0 307.0L91.0 308.0"></path><path d="M257.0 307.0L254.0 308.0"></path><path d="M279.0 307.0L270.0 312.0"></path><path d="M324.0 307.0L325.0 310.0"></path><path d="M38.0 308.0L26.0 309.0"></path><path d="M149.0 308.0L150.0 315.0"></path><path d="M254.0 308.0L253.0 311.0"></path><path d="M406.0 308.0L409.0 312.0"></path><path d="M420.0 308.0L423.0 308.0"></path><path d="M13.0 309.0L17.0 310.0"></path><path d="M45.0 309.0C44.0 309.5 40.5 310.7 39.0 312.0C37.5 313.3 36.5 316.2 36.0 317.0"></path><path d="M72.0 309.0L78.0 310.0"></path><path d="M90.0 309.0L88.0 313.0"></path><path d="M119.0 309.0L115.0 310.0"></path><path d="M142.0 309.0L142.0 314.0"></path><path d="M389.0 309.0L392.0 310.0"></path><path d="M71.0 310.0L73.0 315.0"></path><path d="M80.0 310.0L83.0 310.0"></path><path d="M108.0 310.0L113.0 310.0"></path><path d="M127.0 310.0L123.0 311.0"></path><path d="M140.0 310.0L136.0 311.0"></path><path d="M265.0 310.0L268.0 311.0"></path><path d="M346.0 310.0L350.0 314.0"></path><path d="M431.0 310.0L428.0 312.0"></path><path d="M447.0 310.0L450.0 310.0"></path><path d="M0.0 311.0L0.0 316.0"></path><path d="M98.0 311.0L101.0 311.0"></path><path d="M114.0 311.0L114.0 315.0"></path><path d="M377.0 311.0L376.0 318.0"></path><path d="M416.0 311.0L420.0 313.0"></path><path d="M97.0 312.0L96.0 317.0"></path><path d="M105.0 312.0L105.0 316.0"></path><path d="M319.0 312.0L322.0 312.0"></path><path d="M334.0 312.0L335.0 315.0"></path><path d="M396.0 312.0L406.0 314.0"></path><path d="M444.0 312.0L442.0 319.0"></path><path d="M22.0 313.0L25.0 313.0"></path><path d="M66.0 313.0L68.0 320.0"></path><path d="M135.0 313.0L138.0 315.0"></path><path d="M253.0 313.0L251.0 318.0"></path><path d="M344.0 313.0L348.0 317.0"></path><path d="M21.0 314.0L20.0 319.0"></path><path d="M50.0 314.0L45.0 316.0"></path><path d="M133.0 314.0L130.0 315.0"></path><path d="M315.0 314.0L317.0 318.0"></path><path d="M359.0 314.0L362.0 314.0"></path><path d="M390.0 314.0L393.0 315.0"></path><path d="M5.0 315.0L9.0 316.0"></path><path d="M79.0 315.0L83.0 315.0"></path><path d="M143.0 315.0L144.0 322.0"></path><path d="M258.0 315.0L256.0 319.0"></path><path d="M263.0 315.0L266.0 316.0"></path><path d="M310.0 315.0C310.5 315.7 312.0 318.3 313.0 319.0C314.0 319.7 315.5 319.0 316.0 319.0"></path><path d="M336.0 315.0C336.7 315.0 338.8 314.3 340.0 315.0C341.2 315.7 342.5 318.3 343.0 319.0"></path><path d="M395.0 315.0L405.0 318.0"></path><path d="M422.0 315.0L427.0 315.0"></path><path d="M27.0 316.0L26.0 319.0"></path><path d="M116.0 316.0L118.0 319.0"></path><path d="M324.0 316.0C324.2 316.5 324.5 318.5 325.0 319.0C325.5 319.5 326.5 319.5 327.0 319.0C327.5 318.5 327.8 316.5 328.0 316.0"></path><path d="M335.0 316.0L336.0 319.0"></path><path d="M56.0 317.0L55.0 320.0"></path><path d="M74.0 317.0L77.0 317.0"></path><path d="M103.0 317.0L99.0 318.0"></path><path d="M106.0 317.0L111.0 320.0"></path><path d="M127.0 317.0L123.0 319.0"></path><path d="M226.0 317.0L223.0 318.0"></path><path d="M267.0 317.0L267.0 320.0"></path><path d="M35.0 318.0L31.0 319.0"></path><path d="M87.0 318.0L88.0 321.0"></path><path d="M104.0 318.0L104.0 321.0"></path><path d="M138.0 318.0L135.0 322.0"></path><path d="M277.0 318.0L277.0 322.0"></path><path d="M299.0 318.0L302.0 318.0"></path><path d="M360.0 318.0L360.0 321.0"></path><path d="M407.0 318.0L410.0 318.0"></path><path d="M429.0 318.0L431.0 322.0"></path><path d="M36.0 319.0L36.0 324.0"></path><path d="M122.0 319.0L119.0 320.0"></path><path d="M215.0 319.0L216.0 323.0"></path><path d="M274.0 319.0L275.0 329.0"></path><path d="M294.0 319.0L292.0 325.0"></path><path d="M298.0 319.0L298.0 325.0"></path><path d="M303.0 319.0L304.0 327.0"></path><path d="M406.0 319.0L406.0 323.0"></path><path d="M411.0 319.0L412.0 323.0"></path><path d="M43.0 320.0L41.0 324.0"></path><path d="M442.0 320.0L445.0 321.0"></path><path d="M365.0 321.0L362.0 322.0"></path><path d="M381.0 321.0L386.0 321.0"></path><path d="M386.0 321.0L386.0 327.0"></path><path d="M435.0 321.0L431.0 322.0"></path><path d="M54.0 322.0L56.0 325.0"></path><path d="M77.0 322.0L80.0 323.0"></path><path d="M105.0 322.0L109.0 322.0"></path><path d="M118.0 322.0L121.0 328.0"></path><path d="M223.0 322.0L227.0 322.0"></path><path d="M369.0 322.0L373.0 322.0"></path><path d="M425.0 322.0L430.0 323.0"></path><path d="M436.0 322.0L436.0 326.0"></path><path d="M69.0 323.0L71.0 328.0"></path><path d="M84.0 323.0L84.0 326.0"></path><path d="M103.0 323.0L104.0 326.0"></path><path d="M228.0 323.0L228.0 327.0"></path><path d="M247.0 323.0C246.2 323.7 243.2 325.2 242.0 327.0C240.8 328.8 240.3 332.8 240.0 334.0"></path><path d="M270.0 323.0L269.0 327.0"></path><path d="M368.0 323.0L368.0 326.0"></path><path d="M317.0 324.0L317.0 329.0"></path><path d="M412.0 324.0L412.0 331.0"></path><path d="M431.0 324.0L434.0 327.0"></path><path d="M37.0 325.0L40.0 325.0"></path><path d="M90.0 325.0L92.0 328.0"></path><path d="M157.0 325.0L162.0 327.0"></path><path d="M216.0 325.0L205.0 327.0"></path><path d="M251.0 325.0L252.0 329.0"></path><path d="M378.0 325.0L375.0 326.0"></path><path d="M410.0 325.0L410.0 331.0"></path><path d="M98.0 326.0C97.7 326.7 96.8 329.2 96.0 330.0C95.2 330.8 93.5 330.8 93.0 331.0"></path><path d="M137.0 326.0L140.0 326.0"></path><path d="M142.0 326.0L155.0 326.0"></path><path d="M219.0 326.0L220.0 335.0"></path><path d="M293.0 326.0L297.0 326.0"></path><path d="M335.0 326.0L333.0 335.0"></path><path d="M379.0 326.0L380.0 329.0"></path><path d="M402.0 326.0L404.0 329.0"></path><path d="M407.0 326.0L407.0 330.0"></path><path d="M87.0 327.0L91.0 329.0"></path><path d="M141.0 327.0C140.7 329.0 140.3 335.2 139.0 339.0C137.7 342.8 134.0 348.2 133.0 350.0"></path><path d="M156.0 327.0L161.0 328.0"></path><path d="M345.0 327.0L352.0 327.0"></path><path d="M369.0 327.0L373.0 328.0"></path><path d="M389.0 327.0C389.5 326.8 390.8 325.5 392.0 326.0C393.2 326.5 395.3 329.3 396.0 330.0"></path><path d="M20.0 328.0L24.0 329.0"></path><path d="M35.0 328.0L31.0 335.0"></path><path d="M44.0 328.0L44.0 331.0"></path><path d="M63.0 328.0L65.0 331.0"></path><path d="M81.0 328.0L77.0 329.0"></path><path d="M285.0 328.0L291.0 328.0"></path><path d="M300.0 328.0L299.0 331.0"></path><path d="M304.0 328.0L304.0 331.0"></path><path d="M344.0 328.0L344.0 336.0"></path><path d="M386.0 328.0L381.0 329.0"></path><path d="M18.0 329.0C18.0 329.3 18.3 330.7 18.0 331.0C17.7 331.3 16.3 331.0 16.0 331.0"></path><path d="M82.0 329.0L82.0 332.0"></path><path d="M168.0 329.0L174.0 330.0"></path><path d="M181.0 329.0C181.7 329.0 184.0 328.7 185.0 329.0C186.0 329.3 186.7 330.7 187.0 331.0"></path><path d="M262.0 329.0L265.0 329.0"></path><path d="M283.0 329.0L276.0 330.0"></path><path d="M284.0 329.0L286.0 333.0"></path><path d="M292.0 329.0L293.0 332.0"></path><path d="M25.0 330.0L25.0 334.0"></path><path d="M118.0 330.0L121.0 332.0"></path><path d="M180.0 330.0L180.0 333.0"></path><path d="M192.0 330.0L188.0 331.0"></path><path d="M261.0 330.0C261.2 331.5 261.5 337.2 262.0 339.0C262.5 340.8 263.7 340.7 264.0 341.0"></path><path d="M266.0 330.0C265.8 331.2 264.8 335.5 265.0 337.0C265.2 338.5 266.7 338.7 267.0 339.0"></path><path d="M417.0 330.0L423.0 330.0"></path><path d="M434.0 330.0L428.0 331.0"></path><path d="M175.0 331.0C175.2 331.7 175.2 334.5 176.0 335.0C176.8 335.5 179.3 334.2 180.0 334.0"></path><path d="M313.0 331.0C312.5 331.3 311.3 332.7 310.0 333.0C308.7 333.3 305.8 333.0 305.0 333.0"></path><path d="M319.0 331.0L320.0 337.0"></path><path d="M435.0 331.0L436.0 334.0"></path><path d="M52.0 332.0L46.0 334.0"></path><path d="M255.0 332.0C255.5 332.5 257.3 333.3 258.0 335.0C258.7 336.7 258.8 340.8 259.0 342.0"></path><path d="M300.0 332.0L303.0 332.0"></path><path d="M372.0 332.0L368.0 333.0"></path><path d="M407.0 332.0C407.2 332.7 407.3 335.5 408.0 336.0C408.7 336.5 410.5 335.2 411.0 335.0"></path><path d="M68.0 333.0L73.0 334.0"></path><path d="M75.0 333.0L80.0 335.0"></path><path d="M110.0 333.0L114.0 333.0"></path><path d="M292.0 333.0L287.0 334.0"></path><path d="M356.0 333.0L360.0 333.0"></path><path d="M99.0 334.0L99.0 337.0"></path><path d="M285.0 334.0L279.0 335.0"></path><path d="M295.0 334.0C295.0 334.8 295.3 337.8 295.0 339.0C294.7 340.2 293.3 340.7 293.0 341.0"></path><path d="M304.0 334.0L303.0 337.0"></path><path d="M399.0 334.0C399.7 334.3 402.3 335.2 403.0 336.0C403.7 336.8 403.0 338.5 403.0 339.0"></path><path d="M21.0 335.0L24.0 335.0"></path><path d="M45.0 335.0L44.0 339.0"></path><path d="M62.0 335.0L65.0 338.0"></path><path d="M116.0 335.0L121.0 337.0"></path><path d="M425.0 335.0L421.0 336.0"></path><path d="M26.0 336.0L30.0 336.0"></path><path d="M31.0 336.0L34.0 339.0"></path><path d="M68.0 336.0L72.0 336.0"></path><path d="M84.0 336.0C84.3 336.0 85.2 335.3 86.0 336.0C86.8 336.7 88.5 339.3 89.0 340.0"></path><path d="M325.0 336.0L321.0 338.0"></path><path d="M332.0 336.0L328.0 338.0"></path><path d="M395.0 336.0L394.0 341.0"></path><path d="M427.0 336.0L429.0 339.0"></path><path d="M73.0 337.0L72.0 341.0"></path><path d="M75.0 337.0L79.0 337.0"></path><path d="M389.0 337.0L388.0 340.0"></path><path d="M437.0 337.0L440.0 339.0"></path><path d="M94.0 338.0L98.0 338.0"></path><path d="M106.0 338.0L110.0 340.0"></path><path d="M273.0 338.0L276.0 338.0"></path><path d="M334.0 338.0L338.0 340.0"></path><path d="M343.0 338.0L339.0 340.0"></path><path d="M346.0 338.0L353.0 339.0"></path><path d="M356.0 338.0L360.0 338.0"></path><path d="M420.0 338.0L424.0 342.0"></path><path d="M35.0 339.0C35.7 338.5 37.7 336.0 39.0 336.0C40.3 336.0 42.3 338.5 43.0 339.0"></path><path d="M44.0 339.0L48.0 341.0"></path><path d="M120.0 339.0L116.0 341.0"></path><path d="M120.0 339.0L122.0 343.0"></path><path d="M268.0 339.0L271.0 339.0"></path><path d="M366.0 339.0L365.0 342.0"></path><path d="M43.0 340.0L40.0 345.0"></path><path d="M307.0 340.0L310.0 340.0"></path><path d="M320.0 340.0L322.0 344.0"></path><path d="M441.0 340.0L446.0 340.0"></path><path d="M93.0 341.0L97.0 341.0"></path><path d="M236.0 341.0L236.0 344.0"></path><path d="M278.0 341.0L281.0 342.0"></path><path d="M306.0 341.0L305.0 345.0"></path><path d="M338.0 341.0L337.0 348.0"></path><path d="M404.0 341.0L404.0 344.0"></path><path d="M74.0 342.0C75.0 342.0 78.7 341.7 80.0 342.0C81.3 342.3 81.7 343.7 82.0 344.0"></path><path d="M91.0 342.0C91.5 342.5 92.8 344.7 94.0 345.0C95.2 345.3 96.7 343.8 98.0 344.0C99.3 344.2 101.3 345.7 102.0 346.0"></path><path d="M130.0 342.0L127.0 346.0"></path><path d="M291.0 342.0L286.0 346.0"></path><path d="M399.0 342.0L400.0 345.0"></path><path d="M36.0 343.0L39.0 346.0"></path><path d="M65.0 343.0L64.0 347.0"></path><path d="M73.0 343.0L76.0 347.0"></path><path d="M104.0 343.0L109.0 346.0"></path><path d="M355.0 343.0C355.0 344.2 354.3 348.3 355.0 350.0C355.7 351.7 358.3 352.5 359.0 353.0"></path><path d="M396.0 343.0L397.0 346.0"></path><path d="M48.0 344.0L47.0 349.0"></path><path d="M52.0 344.0L54.0 347.0"></path><path d="M122.0 344.0L121.0 348.0"></path><path d="M376.0 344.0L376.0 347.0"></path><path d="M50.0 345.0L50.0 348.0"></path><path d="M231.0 345.0L234.0 345.0"></path><path d="M237.0 345.0L240.0 345.0"></path><path d="M261.0 345.0L261.0 348.0"></path><path d="M322.0 345.0L321.0 351.0"></path><path d="M366.0 345.0L371.0 346.0"></path><path d="M392.0 345.0C392.2 345.8 393.2 349.0 393.0 350.0C392.8 351.0 391.3 350.8 391.0 351.0"></path><path d="M439.0 345.0C439.0 345.7 439.3 348.2 439.0 349.0C438.7 349.8 437.3 349.8 437.0 350.0"></path><path d="M85.0 346.0L86.0 351.0"></path><path d="M235.0 346.0L235.0 349.0"></path><path d="M244.0 346.0L250.0 346.0"></path><path d="M406.0 346.0L411.0 346.0"></path><path d="M38.0 347.0L32.0 349.0"></path><path d="M40.0 347.0L43.0 349.0"></path><path d="M397.0 347.0L397.0 353.0"></path><path d="M413.0 347.0L417.0 347.0"></path><path d="M65.0 348.0L71.0 348.0"></path><path d="M377.0 348.0L380.0 348.0"></path><path d="M55.0 349.0L59.0 352.0"></path><path d="M61.0 349.0C61.3 349.3 62.5 349.5 63.0 351.0C63.5 352.5 63.8 356.8 64.0 358.0"></path><path d="M79.0 349.0L79.0 352.0"></path><path d="M106.0 349.0L108.0 353.0"></path><path d="M205.0 349.0L203.0 352.0"></path><path d="M256.0 349.0L260.0 349.0"></path><path d="M304.0 349.0L308.0 350.0"></path><path d="M336.0 349.0L322.0 352.0"></path><path d="M364.0 349.0L360.0 353.0"></path><path d="M21.0 350.0L25.0 352.0"></path><path d="M72.0 350.0L71.0 356.0"></path><path d="M236.0 350.0L240.0 350.0"></path><path d="M255.0 350.0L255.0 354.0"></path><path d="M303.0 350.0L301.0 353.0"></path><path d="M423.0 350.0L426.0 350.0"></path><path d="M134.0 351.0C134.3 351.3 136.0 352.2 136.0 353.0C136.0 353.8 134.3 355.5 134.0 356.0"></path><path d="M235.0 351.0L234.0 354.0"></path><path d="M241.0 351.0L241.0 354.0"></path><path d="M340.0 351.0L342.0 354.0"></path><path d="M385.0 351.0L389.0 352.0"></path><path d="M86.0 352.0L80.0 353.0"></path><path d="M130.0 352.0L129.0 355.0"></path><path d="M308.0 352.0L306.0 356.0"></path><path d="M339.0 352.0L340.0 355.0"></path><path d="M375.0 353.0L379.0 353.0"></path><path d="M40.0 354.0L36.0 357.0"></path><path d="M94.0 354.0L97.0 354.0"></path><path d="M202.0 354.0L197.0 365.0"></path><path d="M212.0 354.0L216.0 354.0"></path><path d="M360.0 354.0L359.0 358.0"></path><path d="M433.0 354.0L430.0 355.0"></path><path d="M26.0 355.0L20.0 356.0"></path><path d="M89.0 355.0L85.0 359.0"></path><path d="M235.0 355.0L240.0 355.0"></path><path d="M380.0 355.0L379.0 361.0"></path><path d="M397.0 355.0L397.0 362.0"></path><path d="M2.0 356.0L6.0 356.0"></path><path d="M27.0 356.0L27.0 359.0"></path><path d="M109.0 356.0C109.3 356.3 110.0 357.8 111.0 358.0C112.0 358.2 114.3 357.2 115.0 357.0"></path><path d="M210.0 356.0L206.0 367.0"></path><path d="M218.0 356.0C218.7 356.0 221.2 355.7 222.0 356.0C222.8 356.3 222.8 357.7 223.0 358.0"></path><path d="M234.0 356.0L233.0 360.0"></path><path d="M241.0 356.0L241.0 363.0"></path><path d="M66.0 357.0L69.0 357.0"></path><path d="M130.0 357.0L133.0 357.0"></path><path d="M307.0 357.0L312.0 360.0"></path><path d="M7.0 358.0L2.0 359.0"></path><path d="M95.0 358.0L98.0 358.0"></path><path d="M129.0 358.0L130.0 362.0"></path><path d="M135.0 358.0L138.0 358.0"></path><path d="M35.0 359.0L33.0 364.0"></path><path d="M64.0 359.0L64.0 363.0"></path><path d="M94.0 359.0L93.0 363.0"></path><path d="M224.0 359.0C224.5 359.3 225.7 360.7 227.0 361.0C228.3 361.3 231.2 361.0 232.0 361.0"></path><path d="M316.0 359.0L318.0 364.0"></path><path d="M345.0 359.0L346.0 362.0"></path><path d="M360.0 359.0L363.0 361.0"></path><path d="M11.0 361.0L0.0 362.0"></path><path d="M357.0 361.0L359.0 364.0"></path><path d="M375.0 361.0L378.0 362.0"></path><path d="M234.0 362.0C234.3 362.3 235.0 363.7 236.0 364.0C237.0 364.3 239.3 364.0 240.0 364.0"></path><path d="M296.0 362.0C296.8 362.0 300.0 360.8 301.0 362.0C302.0 363.2 301.8 367.8 302.0 369.0"></path><path d="M379.0 362.0L384.0 373.0"></path><path d="M402.0 362.0L404.0 367.0"></path><path d="M77.0 363.0L77.0 367.0"></path><path d="M85.0 363.0L90.0 365.0"></path><path d="M249.0 363.0L243.0 364.0"></path><path d="M367.0 363.0L370.0 366.0"></path><path d="M65.0 364.0L73.0 364.0"></path><path d="M84.0 364.0L83.0 368.0"></path><path d="M94.0 364.0L100.0 364.0"></path><path d="M131.0 364.0L131.0 368.0"></path><path d="M90.0 365.0L89.0 369.0"></path><path d="M242.0 365.0L240.0 371.0"></path><path d="M397.0 365.0L401.0 369.0"></path><path d="M146.0 366.0C145.2 366.0 142.3 365.3 141.0 366.0C139.7 366.7 138.5 369.3 138.0 370.0"></path><path d="M394.0 366.0L393.0 370.0"></path><path d="M65.0 367.0C65.0 367.8 64.5 371.0 65.0 372.0C65.5 373.0 67.5 372.8 68.0 373.0"></path><path d="M110.0 367.0L117.0 367.0"></path><path d="M196.0 367.0L194.0 370.0"></path><path d="M411.0 367.0L406.0 368.0"></path><path d="M426.0 367.0C426.3 367.5 427.2 369.5 428.0 370.0C428.8 370.5 430.3 370.3 431.0 370.0C431.7 369.7 431.8 368.3 432.0 368.0"></path><path d="M122.0 368.0L126.0 369.0"></path><path d="M413.0 368.0L415.0 372.0"></path><path d="M84.0 369.0L87.0 370.0"></path><path d="M131.0 369.0L132.0 372.0"></path><path d="M200.0 369.0L198.0 373.0"></path><path d="M205.0 369.0L204.0 373.0"></path><path d="M308.0 369.0L303.0 370.0"></path><path d="M405.0 369.0L408.0 374.0"></path><path d="M80.0 370.0L80.0 375.0"></path><path d="M108.0 370.0L111.0 375.0"></path><path d="M127.0 370.0L128.0 373.0"></path><path d="M56.0 371.0C55.7 371.5 54.3 371.7 54.0 374.0C53.7 376.3 54.0 383.2 54.0 385.0"></path><path d="M89.0 371.0C89.3 371.3 89.3 373.0 91.0 373.0C92.7 373.0 97.7 371.3 99.0 371.0"></path><path d="M192.0 371.0C191.2 371.2 188.5 371.2 187.0 372.0C185.5 372.8 183.7 375.3 183.0 376.0"></path><path d="M393.0 371.0L399.0 371.0"></path><path d="M28.0 372.0L29.0 375.0"></path><path d="M88.0 372.0L87.0 376.0"></path><path d="M120.0 372.0C120.2 372.7 121.2 375.0 121.0 376.0C120.8 377.0 119.3 377.7 119.0 378.0"></path><path d="M368.0 372.0L371.0 376.0"></path><path d="M17.0 373.0L21.0 373.0"></path><path d="M239.0 373.0L241.0 376.0"></path><path d="M301.0 373.0L292.0 375.0"></path><path d="M118.0 374.0L115.0 376.0"></path><path d="M203.0 374.0L200.0 376.0"></path><path d="M192.0 375.0L185.0 382.0"></path><path d="M204.0 375.0L203.0 383.0"></path><path d="M71.0 376.0L79.0 376.0"></path><path d="M307.0 376.0L311.0 376.0"></path><path d="M389.0 376.0L389.0 379.0"></path><path d="M12.0 377.0L15.0 378.0"></path><path d="M23.0 377.0L27.0 377.0"></path><path d="M30.0 377.0L30.0 381.0"></path><path d="M82.0 377.0L86.0 377.0"></path><path d="M371.0 377.0L371.0 380.0"></path><path d="M376.0 377.0L376.0 380.0"></path><path d="M10.0 378.0L1.0 381.0"></path><path d="M88.0 378.0L91.0 378.0"></path><path d="M93.0 378.0L97.0 378.0"></path><path d="M130.0 378.0L133.0 378.0"></path><path d="M196.0 378.0L193.0 381.0"></path><path d="M242.0 378.0L240.0 382.0"></path><path d="M312.0 378.0L308.0 379.0"></path><path d="M11.0 379.0C11.0 379.5 10.5 381.0 11.0 382.0C11.5 383.0 13.5 384.5 14.0 385.0"></path><path d="M16.0 379.0L16.0 383.0"></path><path d="M20.0 379.0L20.0 383.0"></path><path d="M92.0 379.0L94.0 384.0"></path><path d="M105.0 379.0L106.0 382.0"></path><path d="M128.0 379.0L130.0 383.0"></path><path d="M235.0 379.0L236.0 383.0"></path><path d="M267.0 379.0L263.0 398.0"></path><path d="M66.0 380.0L63.0 386.0"></path><path d="M117.0 380.0L116.0 388.0"></path><path d="M178.0 380.0L179.0 384.0"></path><path d="M257.0 380.0C257.5 380.2 259.5 380.2 260.0 381.0C260.5 381.8 260.0 384.3 260.0 385.0"></path><path d="M307.0 380.0L312.0 383.0"></path><path d="M331.0 380.0L337.0 382.0"></path><path d="M24.0 381.0L28.0 382.0"></path><path d="M101.0 381.0L103.0 384.0"></path><path d="M193.0 381.0L190.0 384.0"></path><path d="M193.0 381.0L197.0 383.0"></path><path d="M389.0 381.0L394.0 384.0"></path><path d="M72.0 382.0L71.0 387.0"></path><path d="M82.0 382.0L85.0 382.0"></path><path d="M98.0 382.0L94.0 384.0"></path><path d="M111.0 382.0L113.0 388.0"></path><path d="M303.0 382.0C303.0 382.8 302.0 385.7 303.0 387.0C304.0 388.3 308.0 389.5 309.0 390.0"></path><path d="M29.0 383.0L28.0 386.0"></path><path d="M226.0 383.0L225.0 386.0"></path><path d="M339.0 383.0L348.0 383.0"></path><path d="M381.0 383.0C381.5 383.3 383.2 384.8 384.0 385.0C384.8 385.2 385.7 384.2 386.0 384.0"></path><path d="M131.0 384.0L134.0 386.0"></path><path d="M388.0 384.0L391.0 387.0"></path><path d="M21.0 385.0L26.0 387.0"></path><path d="M179.0 385.0L176.0 387.0"></path><path d="M202.0 385.0L199.0 387.0"></path><path d="M236.0 385.0L236.0 398.0"></path><path d="M0.0 386.0L0.0 391.0"></path><path d="M154.0 386.0L152.0 390.0"></path><path d="M259.0 387.0L260.0 398.0"></path><path d="M344.0 387.0L347.0 387.0"></path><path d="M26.0 388.0L25.0 395.0"></path><path d="M63.0 388.0L66.0 391.0"></path><path d="M89.0 388.0L86.0 389.0"></path><path d="M175.0 388.0L165.0 390.0"></path><path d="M315.0 388.0L318.0 390.0"></path><path d="M359.0 388.0L356.0 390.0"></path><path d="M13.0 389.0L1.0 392.0"></path><path d="M14.0 389.0L22.0 397.0"></path><path d="M116.0 389.0L118.0 393.0"></path><path d="M193.0 389.0L197.0 389.0"></path><path d="M197.0 389.0L194.0 396.0"></path><path d="M223.0 389.0L220.0 398.0"></path><path d="M252.0 389.0L252.0 393.0"></path><path d="M338.0 389.0L342.0 391.0"></path><path d="M391.0 389.0L387.0 390.0"></path><path d="M393.0 389.0C395.2 389.3 402.8 390.2 406.0 391.0C409.2 391.8 411.0 393.5 412.0 394.0"></path><path d="M418.0 389.0L422.0 390.0"></path><path d="M55.0 390.0L58.0 391.0"></path><path d="M114.0 390.0L115.0 394.0"></path><path d="M102.0 391.0L102.0 396.0"></path><path d="M143.0 391.0C143.2 391.7 143.2 394.3 144.0 395.0C144.8 395.7 147.3 395.0 148.0 395.0"></path><path d="M191.0 391.0L188.0 397.0"></path><path d="M356.0 391.0L357.0 394.0"></path><path d="M424.0 391.0L427.0 392.0"></path><path d="M60.0 392.0L65.0 392.0"></path><path d="M83.0 392.0L84.0 397.0"></path><path d="M99.0 392.0L98.0 398.0"></path><path d="M345.0 392.0L351.0 392.0"></path><path d="M381.0 392.0L378.0 393.0"></path><path d="M0.0 393.0L0.0 398.0"></path><path d="M69.0 393.0L69.0 398.0"></path><path d="M329.0 393.0L333.0 394.0"></path><path d="M344.0 393.0L341.0 395.0"></path><path d="M370.0 393.0L373.0 393.0"></path><path d="M322.0 394.0L327.0 394.0"></path><path d="M358.0 394.0C358.5 394.0 360.2 393.3 361.0 394.0C361.8 394.7 362.7 397.3 363.0 398.0"></path><path d="M377.0 394.0L378.0 397.0"></path><path d="M430.0 394.0L434.0 395.0"></path><path d="M107.0 395.0L110.0 395.0"></path><path d="M179.0 395.0L179.0 398.0"></path><path d="M328.0 395.0L328.0 398.0"></path><path d="M413.0 395.0L419.0 398.0"></path><path d="M169.0 397.0L172.0 397.0"></path><path d="M367.0 397.0L371.0 397.0"></path><path d="M181.0 398.0L187.0 399.0"></path><path d="M263.0 398.0L263.0 398.0"></path><path d="M309.0 398.0L305.0 399.0"></path><path d="M18.0 399.0L22.0 399.0"></path><path d="M24.0 399.0L29.0 399.0"></path><path d="M65.0 399.0L68.0 399.0"></path><path d="M70.0 399.0L83.0 399.0"></path><path d="M88.0 399.0L92.0 399.0"></path><path d="M106.0 399.0L109.0 399.0"></path><path d="M150.0 399.0L167.0 399.0"></path><path d="M329.0 399.0L336.0 399.0"></path><path d="M338.0 399.0L353.0 399.0"></path><path d="M359.0 399.0L362.0 399.0"></path><path d="M379.0 399.0L385.0 399.0"></path><path d="M420.0 399.0L428.0 399.0"></path></svg>
